<svg width="246" height="58" viewBox="0 0 246 58" fill="none" xmlns="http://www.w3.org/2000/svg">
<path d="M68.448 56.4513C67.8377 57.0925 67.1055 57.4083 66.2418 57.4083C65.3781 57.4083 64.6365 57.0827 64.0263 56.4513C63.4161 55.81 63.1157 55.0404 63.1157 54.1229C63.1157 53.2053 63.4161 52.4456 64.0263 51.8044C64.6365 51.1631 65.3687 50.8474 66.2418 50.8474C67.1149 50.8474 67.8377 51.1729 68.448 51.8044L67.5655 52.7318C67.1994 52.347 66.7581 52.1497 66.2418 52.1497C65.7255 52.1497 65.2842 52.3371 64.9181 52.7318C64.552 53.1165 64.3642 53.5802 64.3642 54.1229C64.3642 54.6655 64.5426 55.1292 64.9181 55.514C65.2842 55.8988 65.7255 56.0961 66.2418 56.0961C66.7581 56.0961 67.1994 55.9086 67.5655 55.514L68.448 56.4414V56.4513Z" fill="#102241"/>
<path d="M70.4288 51.0349H71.6774V53.4718H74.1745V51.0349H75.4231V57.2209H74.1745V54.7839H71.6774V57.2209H70.4288V51.0349Z" fill="#102241"/>
<path d="M81.8444 51.0349V52.347H79.1689V53.4718H81.3093V54.7839H79.1689V55.9087H81.8444V57.2209H77.9203V51.0349H81.8444Z" fill="#102241"/>
<path d="M85.2334 55.9087V57.2209H83.9848V51.0349H86.1252C86.7636 51.0349 87.3175 51.2716 87.7681 51.7452C88.2187 52.2188 88.444 52.791 88.444 53.4718C88.444 54.1525 88.2187 54.7247 87.7681 55.1983C87.6742 55.297 87.5803 55.3858 87.4771 55.4647L88.444 57.2307H87.0077L86.2848 55.9087C86.2379 55.9087 86.1816 55.9087 86.1252 55.9087H85.2334ZM85.2334 52.347V54.5965H86.1252C86.4162 54.5965 86.6697 54.488 86.8856 54.2709C87.0922 54.0539 87.1954 53.7875 87.1954 53.4718C87.1954 53.156 87.0922 52.8995 86.8856 52.6726C86.6791 52.4556 86.4256 52.347 86.1252 52.347H85.2334Z" fill="#102241"/>
<path d="M92.0114 51.0349V57.2209H90.7628V51.0349H92.0114Z" fill="#102241"/>
<path d="M95.3535 55.3265C95.7384 55.8396 96.1702 56.0961 96.6584 56.0961C96.94 56.0961 97.1653 56.0369 97.3531 55.9284C97.5315 55.8198 97.6253 55.6521 97.6253 55.4252C97.6066 55.2279 97.5033 55.0799 97.3062 54.9714L95.9261 54.6162C95.5037 54.4781 95.1657 54.2511 94.9029 53.9354C94.6494 53.6197 94.518 53.2744 94.518 52.9094C94.518 52.2878 94.7245 51.7846 95.1376 51.4097C95.5506 51.0348 96.0388 50.8474 96.5927 50.8474C97.4376 50.8474 98.1417 51.1729 98.6956 51.8241L97.7286 52.643C97.447 52.3273 97.0902 52.1595 96.6678 52.1595C96.3861 52.1595 96.1608 52.2187 96.0106 52.347C95.8604 52.4752 95.7759 52.6232 95.7759 52.8008C95.7759 53.0475 95.9355 53.2448 96.2641 53.3928L97.6441 53.7381C98.4702 54.0637 98.8833 54.626 98.8833 55.4252C98.8833 55.958 98.6955 56.4217 98.3106 56.8163C97.9257 57.2109 97.3813 57.4083 96.6678 57.4083C95.7008 57.4083 94.9216 56.9544 94.3396 56.0566L95.3629 55.3265H95.3535Z" fill="#102241"/>
<path d="M101.118 51.0349H102.366V53.4718H104.863V51.0349H106.112V57.2209H104.863V54.7839H102.366V57.2209H101.118V51.0349Z" fill="#102241"/>
<path d="M117.509 51.8044C118.119 52.4456 118.419 53.2152 118.419 54.1229C118.419 55.0305 118.11 55.81 117.509 56.4513C116.899 57.0925 116.166 57.4083 115.303 57.4083C114.439 57.4083 113.697 57.0827 113.087 56.4513C112.477 55.81 112.176 55.0404 112.176 54.1229C112.176 53.2053 112.486 52.4456 113.087 51.8044C113.697 51.1631 114.43 50.8474 115.303 50.8474C116.176 50.8474 116.899 51.1729 117.509 51.8044ZM115.303 52.1595C114.786 52.1595 114.345 52.347 113.97 52.7416C113.603 53.1264 113.416 53.5901 113.416 54.1327C113.416 54.6754 113.603 55.1391 113.97 55.5238C114.336 55.9086 114.777 56.1059 115.303 56.1059C115.828 56.1059 116.26 55.9185 116.626 55.5238C116.992 55.1391 117.18 54.6754 117.18 54.1327C117.18 53.5901 116.992 53.1264 116.626 52.7416C116.26 52.3569 115.819 52.1595 115.303 52.1595Z" fill="#102241"/>
<path d="M124.484 51.0349V52.347H121.808V53.4718H123.949V54.7839H121.808V57.2209H120.56V51.0349H124.484Z" fill="#102241"/>
<path d="M135.346 56.4513C134.735 57.0925 134.003 57.4083 133.14 57.4083C132.276 57.4083 131.534 57.0827 130.924 56.4513C130.314 55.81 130.013 55.0404 130.013 54.1229C130.013 53.2053 130.314 52.4456 130.924 51.8044C131.534 51.1631 132.266 50.8474 133.14 50.8474C134.013 50.8474 134.735 51.1729 135.346 51.8044L134.463 52.7318C134.097 52.347 133.656 52.1497 133.14 52.1497C132.623 52.1497 132.182 52.3371 131.816 52.7318C131.45 53.1165 131.262 53.5802 131.262 54.1229C131.262 54.6655 131.44 55.1292 131.816 55.514C132.182 55.8988 132.623 56.0961 133.14 56.0961C133.656 56.0961 134.097 55.9086 134.463 55.514L135.346 56.4414V56.4513Z" fill="#102241"/>
<path d="M137.326 51.0349H138.575V55.9087H141.072V57.2209H137.326V51.0349Z" fill="#102241"/>
<path d="M144.283 51.0349V57.2209H143.034V51.0349H144.283Z" fill="#102241"/>
<path d="M150.704 51.0349V52.347H148.029V53.4718H150.169V54.7839H148.029V55.9087H150.704V57.2209H146.78V51.0349H150.704Z" fill="#102241"/>
<path d="M154.103 53.5803V57.2209H152.854V51.0349H153.877L156.412 54.6754V51.0349H157.661V57.2209H156.637L154.093 53.5803H154.103Z" fill="#102241"/>
<path d="M163.556 51.0349V52.347H162.129V57.2209H160.881V52.347H159.454V51.0349H163.556Z" fill="#102241"/>
<path d="M174.239 51.8044C174.85 52.4456 175.15 53.2152 175.15 54.1229C175.15 55.0305 174.85 55.81 174.239 56.4513C173.629 57.0925 172.897 57.4083 172.033 57.4083C171.17 57.4083 170.428 57.0827 169.818 56.4513C169.208 55.81 168.907 55.0404 168.907 54.1229C168.907 53.2053 169.208 52.4456 169.818 51.8044C170.428 51.1631 171.16 50.8474 172.033 50.8474C172.906 50.8474 173.629 51.1729 174.239 51.8044ZM172.033 52.1595C171.517 52.1595 171.076 52.347 170.71 52.7416C170.343 53.1264 170.156 53.5901 170.156 54.1327C170.156 54.6754 170.334 55.1391 170.71 55.5238C171.076 55.9086 171.517 56.1059 172.033 56.1059C172.55 56.1059 172.991 55.9185 173.357 55.5238C173.723 55.1391 173.911 54.6754 173.911 54.1327C173.911 53.5901 173.732 53.1264 173.357 52.7416C172.991 52.3569 172.55 52.1595 172.033 52.1595Z" fill="#102241"/>
<path d="M181.562 51.0349L179.412 57.2209H178.436L176.286 51.0349H177.619L178.924 54.8037L180.238 51.0349H181.562Z" fill="#102241"/>
<path d="M187.307 51.0349V52.347H184.632V53.4718H186.772V54.7839H184.632V55.9087H187.307V57.2209H183.383V51.0349H187.307Z" fill="#102241"/>
<path d="M190.696 55.9087V57.2209H189.448V51.0349H191.588C192.236 51.0349 192.78 51.2716 193.231 51.7452C193.682 52.2188 193.907 52.791 193.907 53.4718C193.907 54.1525 193.682 54.7247 193.231 55.1983C193.137 55.297 193.043 55.3858 192.94 55.4647L193.907 57.2307H192.471L191.748 55.9087C191.691 55.9087 191.644 55.9087 191.588 55.9087H190.696ZM190.696 52.347V54.5965H191.588C191.889 54.5965 192.133 54.488 192.349 54.2709C192.564 54.0539 192.658 53.7875 192.658 53.4718C192.658 53.156 192.555 52.8995 192.349 52.6726C192.142 52.4556 191.889 52.347 191.588 52.347H190.696Z" fill="#102241"/>
<path d="M195.878 57.2209H195.343V55.9087H195.878C196.216 55.9087 196.517 55.7804 196.761 55.5239C197.005 55.2674 197.127 54.9615 197.127 54.5965V51.0349H198.376V54.5965C198.376 55.3167 198.131 55.9383 197.643 56.4513C197.155 56.9643 196.564 57.2209 195.878 57.2209Z" fill="#102241"/>
<path d="M205.67 51.8044C206.28 52.4456 206.58 53.2152 206.58 54.1229C206.58 55.0305 206.28 55.81 205.67 56.4513C205.06 57.0925 204.327 57.4083 203.464 57.4083C202.6 57.4083 201.858 57.0827 201.248 56.4513C200.638 55.81 200.338 55.0404 200.338 54.1229C200.338 53.2053 200.638 52.4456 201.248 51.8044C201.858 51.1631 202.591 50.8474 203.464 50.8474C204.337 50.8474 205.06 51.1729 205.67 51.8044ZM203.454 52.1595C202.938 52.1595 202.497 52.347 202.131 52.7416C201.764 53.1264 201.577 53.5901 201.577 54.1327C201.577 54.6754 201.755 55.1391 202.131 55.5238C202.497 55.9086 202.938 56.1059 203.454 56.1059C203.971 56.1059 204.412 55.9185 204.778 55.5238C205.144 55.1391 205.332 54.6754 205.332 54.1327C205.332 53.5901 205.153 53.1264 204.778 52.7416C204.412 52.3569 203.971 52.1595 203.454 52.1595Z" fill="#102241"/>
<path d="M211.049 54.8925V57.2209H209.801V54.8925L207.66 51.0349H209.106L210.43 53.4224L211.753 51.0349H213.19L211.049 54.8925Z" fill="#102241"/>
<path d="M215.133 56.2836V57.2208H213.884V56.2836H215.133Z" fill="#102241"/>
<path d="M221.376 51.0349H222.624V53.4718H225.121V51.0349H226.37V57.2209H225.121V54.7839H222.624V57.2209H221.376V51.0349Z" fill="#102241"/>
<path d="M232.801 51.0349V52.347H230.125V53.4718H232.266V54.7839H230.125V55.9087H232.801V57.2209H228.877V51.0349H232.801Z" fill="#102241"/>
<path d="M236.19 55.9087V57.2209H234.941V51.0349H237.082C237.729 51.0349 238.274 51.2716 238.724 51.7452C239.175 52.2188 239.4 52.791 239.4 53.4718C239.4 54.1525 239.175 54.7247 238.724 55.1983C238.631 55.297 238.537 55.3858 238.433 55.4647L239.4 57.2307H237.964L237.241 55.9087C237.185 55.9087 237.138 55.9087 237.082 55.9087H236.19ZM236.19 52.347V54.5965H237.082C237.382 54.5965 237.626 54.488 237.842 54.2709C238.049 54.0539 238.152 53.7875 238.152 53.4718C238.152 53.156 238.049 52.8995 237.842 52.6726C237.635 52.4556 237.382 52.347 237.082 52.347H236.19Z" fill="#102241"/>
<path d="M245.643 51.0349V52.347H242.968V53.4718H245.108V54.7839H242.968V55.9087H245.643V57.2209H241.719V51.0349H245.643Z" fill="#102241"/>
<path d="M90.162 35.1111C87.0358 38.3964 83.2525 40.0441 78.8215 40.0441C74.3904 40.0441 70.579 38.3964 67.4528 35.1111C64.3267 31.8257 62.7589 27.8398 62.7589 23.1633C62.7589 18.4868 64.3267 14.5404 67.4528 11.2451C70.579 7.95973 74.3717 6.3121 78.8215 6.3121C83.2713 6.3121 87.0265 7.95973 90.162 11.2451L85.6089 16.0301C83.7219 14.0471 81.4595 13.0605 78.8215 13.0605C76.1835 13.0605 73.8835 14.0471 71.9965 16.0301C70.1096 18.0132 69.1708 20.3909 69.1708 23.1633C69.1708 25.9356 70.1096 28.3528 71.9965 30.3359C73.8835 32.319 76.1553 33.3056 78.8215 33.3056C81.4876 33.3056 83.7219 32.319 85.6089 30.3359L90.162 35.1209V35.1111Z" fill="#102241"/>
<path d="M123.179 11.2451C126.305 14.5305 127.873 18.5065 127.873 23.1633C127.873 27.82 126.305 31.8256 123.179 35.111C120.053 38.3964 116.27 40.044 111.838 40.044C107.407 40.044 103.596 38.3964 100.47 35.111C97.3436 31.8256 95.7759 27.8398 95.7759 23.1633C95.7759 18.4868 97.3436 14.5403 100.47 11.2451C103.596 7.9597 107.389 6.31207 111.838 6.31207C116.288 6.31207 120.043 7.9597 123.179 11.2451ZM111.838 13.0604C109.172 13.0604 106.9 14.047 105.014 16.0301C103.127 18.0132 102.188 20.3909 102.188 23.1633C102.188 25.9356 103.127 28.3528 105.014 30.3359C106.9 32.3189 109.172 33.3055 111.838 33.3055C114.505 33.3055 116.739 32.3189 118.626 30.3359C120.513 28.3528 121.452 25.9652 121.452 23.1633C121.452 20.3613 120.513 18.0132 118.626 16.0301C116.739 14.047 114.476 13.0604 111.838 13.0604Z" fill="#102241"/>
<path d="M164.26 35.111C161.134 38.3964 157.351 40.044 152.92 40.044C148.489 40.044 144.677 38.3964 141.551 35.111C138.425 31.8256 136.857 27.8398 136.857 23.1633C136.857 18.4868 138.425 14.5403 141.551 11.2451C144.677 7.9597 148.47 6.31207 152.92 6.31207C157.369 6.31207 161.125 7.9597 164.26 11.2451L159.707 16.0301C157.82 14.047 155.558 13.0604 152.92 13.0604C150.282 13.0604 147.982 14.047 146.095 16.0301C144.208 18.0132 143.269 20.3909 143.269 23.1633C143.269 25.9356 144.208 28.3528 146.095 30.3359C147.982 32.3189 150.253 33.3055 152.92 33.3055C155.586 33.3055 157.82 32.3189 159.707 30.3359L164.26 35.1209V35.111Z" fill="#102241"/>
<path d="M197.277 11.2451C200.403 14.5305 201.971 18.5065 201.971 23.1633C201.971 27.82 200.403 31.8256 197.277 35.111C194.151 38.3964 190.368 40.044 185.937 40.044C181.506 40.044 177.694 38.3964 174.568 35.111C171.442 31.8256 169.874 27.8398 169.874 23.1633C169.874 18.4868 171.442 14.5403 174.568 11.2451C177.694 7.9597 181.487 6.31207 185.937 6.31207C190.386 6.31207 194.142 7.9597 197.277 11.2451ZM185.946 13.0604C183.28 13.0604 181.008 14.047 179.121 16.0301C177.234 18.0132 176.295 20.3909 176.295 23.1633C176.295 25.9356 177.234 28.3528 179.121 30.3359C181.008 32.3189 183.28 33.3055 185.946 33.3055C188.612 33.3055 190.846 32.3189 192.733 30.3359C194.62 28.3528 195.559 25.9652 195.559 23.1633C195.559 20.3613 194.62 18.0132 192.733 16.0301C190.846 14.047 188.584 13.0604 185.946 13.0604Z" fill="#102241"/>
<path d="M220.315 7.27893H226.736V19.8088H239.579V7.27893H246V39.087H239.579V26.5572H226.736V39.087H220.315V7.27893Z" fill="#E06D22"/>
<path d="M47.0062 23.4198H40.5286V57.4083H47.0062V23.4198Z" fill="#102241"/>
<path d="M21.3773 48.4795H14.8997V57.4083H21.3773V48.4795Z" fill="#E06D22"/>
<path d="M29.5354 38.9489C26.8223 39.7678 24.1749 39.9848 21.3679 39.896V23.4296H14.8903V39.166C10.4499 38.0314 6.48823 34.6572 6.48823 23.3606C6.48823 10.219 11.8487 7.79198 17.0495 7.15069C21.612 6.64752 25.4798 6.55873 29.4603 7.75252C31.6758 8.47274 34.3983 10.0612 36.3979 11.7877L40.5097 6.52913C37.8718 4.25007 34.3701 2.22754 31.3097 1.2212C25.968 -0.377095 20.983 -0.120578 16.3455 0.392455C5.5119 1.7145 0.0200195 9.44947 0.0200195 23.3606C0.0200195 37.2717 5.5119 44.9968 16.383 46.3386C18.3263 46.5556 20.3447 46.7233 22.4382 46.7233C25.2827 46.7233 28.268 46.4076 31.3848 45.4704C34.3795 44.4936 37.8811 42.4711 40.5191 40.192L36.4072 34.9334C34.4076 36.6699 31.6852 38.2484 29.5447 38.9489H29.5354Z" fill="#102241"/>
</svg>
