<svg width="93" height="82" viewBox="0 0 93 82" fill="none" xmlns="http://www.w3.org/2000/svg">
<path d="M0 67.1953H2.42126V72.8045H8.11121V67.1953H10.5325V81.2789H8.11121V75.1249H2.42126V81.2789H0V67.1953Z" fill="black"/>
<path d="M20.6816 77.2636H16.3838L15.1732 81.2587H12.6511L17.09 67.175H20.0762L24.5757 81.2587H21.9124L20.6614 77.2636H20.6816ZM16.8883 75.2055H20.157L19.1279 71.8965C18.9867 71.5131 18.8858 71.1096 18.8051 70.6657L18.5428 69.5156C18.5024 69.7375 18.4217 70.0402 18.3208 70.4236C18.2199 70.8069 18.0787 71.2912 17.9173 71.8763L16.9084 75.2055H16.8883Z" fill="black"/>
<path d="M26.7347 67.1953H29.1559V81.2789H26.7347V67.1953Z" fill="black"/>
<path d="M32.3238 81.2587V67.397C32.9291 67.2961 33.5546 67.2154 34.1599 67.1549C34.7652 67.0943 35.3907 67.0742 36.0162 67.0742C39.527 67.0742 41.2824 68.4059 41.2824 71.0894C41.2824 71.8965 41.0403 72.643 40.5762 73.3089C40.1122 73.9344 39.6279 74.3581 39.1033 74.5397C39.8095 74.8625 40.3543 75.7907 40.7377 77.3241L41.1815 79.2813C41.4035 80.1691 41.6254 80.8148 41.8474 81.2587H39.2849C39.0629 80.8148 38.7603 79.6849 38.3568 77.8891C38.1752 77.0618 37.933 76.4767 37.6304 76.174C37.2268 75.7301 36.682 75.5082 35.9759 75.5082H34.7047V81.2587H32.3238ZM34.7047 69.2533V73.5107H36.1776C36.9645 73.5107 37.5698 73.3291 38.0339 72.9861C38.5787 72.5825 38.841 71.9974 38.841 71.271C38.841 69.8384 37.9532 69.1322 36.1776 69.1322C35.4109 69.1322 34.9065 69.1726 34.7047 69.2533Z" fill="black"/>
<path d="M48.6874 81.1174V67.2558C49.7568 67.054 50.927 66.9329 52.2184 66.9329C53.9334 66.9329 55.2248 67.2356 56.1126 67.8611C57.0004 68.4866 57.4443 69.3744 57.4443 70.5446C57.4443 72.0579 56.7986 73.0264 55.5274 73.4905C57.1416 73.9747 57.9285 75.145 57.9285 77.0013C57.9285 79.8463 55.8503 81.2587 51.6938 81.2587C51.149 81.2587 50.6244 81.2587 50.1401 81.2385C49.6357 81.2385 49.1716 81.178 48.6874 81.1174ZM51.0683 69.0717V72.7036H52.3394C53.0456 72.7036 53.6308 72.5623 54.1352 72.2799C54.68 71.9369 54.9423 71.4526 54.9423 70.7868C54.9423 69.5761 54.0948 68.9708 52.4 68.9708C52.0771 68.9708 51.8148 68.9708 51.5929 68.9708C51.3709 68.9708 51.1893 69.0112 51.0683 69.0515V69.0717ZM51.0683 74.7011V79.1401C51.2499 79.1804 51.6534 79.2006 52.2991 79.2006C54.3572 79.2006 55.3862 78.4541 55.3862 76.9408C55.3862 76.1539 55.0634 75.5687 54.3975 75.2055C53.8527 74.8625 53.1667 74.7011 52.3193 74.7011H51.0885H51.0683Z" fill="black"/>
<path d="M67.5328 72.7036V74.8827H62.4482V78.8576H68.1381V81.0972H60.0269V67.0136H67.8355V69.2533H62.4482V72.6834H67.5328V72.7036Z" fill="black"/>
<path d="M77.1371 77.1224H72.8394L71.6288 81.1174H69.1066L73.5456 67.0338H76.5318L81.0313 81.1174H78.3679L77.117 77.1224H77.1371ZM73.3236 75.0643H76.5923L75.5633 71.7553C75.4221 71.3719 75.3212 70.9684 75.2405 70.5245L74.9782 69.3744C74.9378 69.5963 74.8571 69.899 74.7562 70.2823C74.6553 70.6657 74.5141 71.1499 74.3527 71.7351L73.3438 75.0643H73.3236Z" fill="black"/>
<path d="M82.7464 81.1174V67.2558C83.3517 67.1549 83.9772 67.0742 84.5825 67.0136C85.1878 66.9531 85.8133 66.9329 86.4388 66.9329C89.9496 66.9329 91.705 68.2646 91.705 70.9482C91.705 71.7553 91.4629 72.5018 90.9988 73.1677C90.5348 73.7931 90.0505 74.2169 89.5259 74.3985C90.2321 74.7213 90.7769 75.6494 91.1603 77.1829L91.6042 79.1401C91.8261 80.0279 92.0481 80.6736 92.27 81.1174H89.7075C89.4856 80.6736 89.1829 79.5436 88.7794 77.7479C88.5978 76.9206 88.3556 76.3355 88.053 76.0328C87.6494 75.5889 87.1047 75.367 86.3985 75.367H85.1273V81.1174H82.7464ZM85.1273 69.1121V73.3694H86.6002C87.3871 73.3694 87.9925 73.1878 88.4565 72.8448C89.0013 72.4413 89.2636 71.8561 89.2636 71.1298C89.2636 69.6972 88.3758 68.991 86.6002 68.991C85.8335 68.991 85.3291 69.0313 85.1273 69.1121Z" fill="black"/>
<path d="M78.0653 45.0609C76.2292 42.8011 73.1421 41.6711 68.9251 41.6711V47.9261C71.084 47.9261 72.6578 48.3296 73.2228 49.0156C73.7676 49.6815 73.586 51.0333 73.4448 51.7799C73.1623 53.1721 72.6578 54.1608 72.0727 54.4433C71.7297 54.6249 70.6401 54.8872 68.0575 53.6564L65.3739 59.306C67.5329 60.335 69.5102 60.8394 71.2858 60.8394C72.5771 60.8394 73.7676 60.5771 74.8571 60.0323C76.5117 59.2051 78.6908 57.3084 79.5584 53.0309C80.3857 48.9753 79.1952 46.4733 78.0653 45.0811V45.0609Z" fill="black"/>
<path d="M20.1973 54.4433C19.6121 54.1406 19.1077 53.1721 18.8252 51.7799C18.6638 51.0333 18.5024 49.6815 19.0472 49.0156C19.6121 48.3094 21.186 47.9261 23.3449 47.9261V41.6711C19.1279 41.6711 16.0408 42.8212 14.2047 45.0609C13.0546 46.4531 11.8843 48.9753 12.7116 53.0107C13.5792 57.3084 15.7583 59.1849 17.4128 60.0121C18.5024 60.5569 19.6929 60.8192 20.9842 60.8192C22.7598 60.8192 24.7371 60.3148 26.8961 59.2858L24.2125 53.6362C21.65 54.867 20.5403 54.5845 20.1973 54.4231V54.4433Z" fill="black"/>
<path d="M46.3267 0.671204V3.85919L40.4148 1.84148L41.464 4.48468C39.9709 4.88822 38.5585 5.49354 37.247 6.26027L35.7337 4.74698C34.1599 3.17317 31.6176 3.17317 30.0639 4.74698C28.4901 6.3208 28.4901 8.86312 30.0639 10.4168L31.4158 11.7686C29.5595 14.5732 28.4699 17.9226 28.4699 21.5344C28.4699 25.3478 29.6806 28.6972 31.7386 31.3606C28.1068 34.4881 25.8873 38.9069 25.8873 44.7784C25.8873 49.6613 27.5216 54.1809 30.1446 57.8935C30.1648 57.9339 30.2052 57.9742 30.2253 58.0146C30.2253 58.0348 30.2657 58.0549 30.2859 58.0953C31.3754 59.5481 33.1914 60.4964 35.2495 60.4964C38.5787 60.4964 41.2622 58.0348 41.2622 54.988C41.2622 53.5151 40.6166 52.1632 39.5875 51.1746C39.6682 51.2553 39.7288 51.3158 39.8095 51.3965C38.5383 49.9841 37.7918 48.1682 37.7918 46.2312C37.7918 41.9536 40.8587 38.0594 46.1249 38.0594C51.3912 38.0594 54.4581 41.9738 54.4581 46.2312C54.4581 48.1883 53.7115 49.9841 52.4404 51.3965C52.4404 51.3965 52.5816 51.2553 52.6623 51.1746C51.6333 52.1632 50.9876 53.4949 50.9876 54.988C50.9876 58.0348 53.6913 60.4964 57.0004 60.4964C59.0585 60.4964 60.8946 59.5481 61.964 58.0953C61.964 58.0751 62.0043 58.055 62.0245 58.0146C62.0447 57.9742 62.085 57.9339 62.1052 57.8935C64.7282 54.1809 66.3626 49.6613 66.3626 44.7784C66.3626 38.927 64.1431 34.4881 60.5112 31.3606C62.5693 28.6972 63.7799 25.3478 63.7799 21.5344C63.7799 17.9226 62.6903 14.5531 60.834 11.7686L62.1859 10.4168C63.7597 8.84294 63.7597 6.30062 62.1859 4.74698C60.6121 3.17317 58.0698 3.17317 56.5161 4.74698L55.0029 6.26027C54.1151 5.73566 53.1667 5.29177 52.1781 4.92858M36.5004 12.0309C36.5004 10.8607 37.4488 9.89215 38.6392 9.89215C39.8297 9.89215 40.778 10.8405 40.778 12.0309C40.778 13.2214 39.8297 14.1697 38.6392 14.1697C37.4488 14.1697 36.5004 13.2214 36.5004 12.0309ZM46.1249 25.7917C42.4729 25.7917 39.5068 24.8838 39.5068 21.0501C39.5068 17.2164 42.4729 12.9792 46.1249 12.9792C49.777 12.9792 52.743 17.1963 52.743 21.0501C52.743 24.9039 49.777 25.7917 46.1249 25.7917ZM53.6308 14.1697C52.4605 14.1697 51.492 13.2214 51.492 12.0309C51.492 10.8405 52.4404 9.89215 53.6308 9.89215C54.8213 9.89215 55.7696 10.8405 55.7696 12.0309C55.7696 13.2214 54.8213 14.1697 53.6308 14.1697Z" fill="black"/>
<path d="M46.1249 16.0865C44.4906 16.0865 43.1791 16.248 43.1791 17.8823C43.1791 19.5167 44.5108 20.8282 46.1249 20.8282C47.7391 20.8282 49.0708 19.4965 49.0708 17.8823C49.0708 16.2681 47.7391 16.0865 46.1249 16.0865Z" fill="black"/>
</svg>
