<svg width="82" height="44" viewBox="0 0 82 44" fill="none" xmlns="http://www.w3.org/2000/svg">
<path d="M34.7745 0.312866H31.4019V2.61777H34.7745V0.312866Z" fill="black"/>
<path d="M77.7212 40.564C76.0154 40.564 75.1299 39.3269 75.1299 36.8397V29.1046H80.2345V26.0444H75.1299V19.9241H71.7311V26.0444H68.163V29.1046H71.7311V37.1782C71.7311 38.5065 71.9004 39.6655 72.5775 40.577H60.1675C56.352 40.577 53.93 38.0507 53.93 34.4957C53.93 30.9407 56.2349 28.4144 59.3992 28.4144C62.0818 28.4144 64.2304 30.2766 64.4257 32.92H56.1177V35.9021H67.7594C67.8766 35.5244 67.9547 34.9905 67.9547 34.4957C67.9547 29.0785 64.556 25.3542 59.4904 25.3542C54.4248 25.3542 50.5312 29.1957 50.5312 34.4957C50.5312 37.1001 51.4298 39.2097 52.9664 40.577H47.3669C48.3045 39.5873 48.7472 38.1809 48.7472 36.5271C48.7472 32.881 46.5204 30.6542 40.2308 29.0004C35.6861 27.8024 34.436 26.7606 34.436 24.8203C34.436 22.9973 35.7773 21.5909 38.9807 21.5909H46.9632V18.5307H39.0197C33.4593 18.5307 31.0372 21.1351 31.0372 24.8985C31.0372 28.9483 33.7589 30.7323 38.4989 31.9304C43.4863 33.2065 45.2703 34.2874 45.2703 36.6834C45.2703 38.832 43.5644 40.577 39.1109 40.577H8.31384V43.6372H81.2372V40.577H77.7472L77.7212 40.564Z" fill="black"/>
<path d="M16.153 37.6601H19.4997V18.5177C19.4997 15.9784 21.5702 13.9079 24.1095 13.9079H26.8181C31.2065 13.9079 34.7745 10.3399 34.7745 5.95143V4.87061H31.4279V5.95143C31.4279 8.49073 29.3574 10.5612 26.8181 10.5612H25.6591C26.5837 9.25903 27.1306 7.67034 27.1306 5.95143V4.87061H23.7839V5.95143C23.7839 6.14676 23.784 6.34209 23.7449 6.5244H19.5127C19.5127 6.34209 19.5388 6.14676 19.5388 5.95143V4.87061H16.1921V5.95143C16.1921 8.49073 14.1346 10.5612 11.5823 10.5612H8.87376C4.48533 10.5612 0.917236 14.1293 0.917236 18.5177V43.6242H4.26391V32.3471H16.153V37.6601ZM18.9918 8.8293H22.7682C21.9218 9.88409 20.6196 10.5612 19.1611 10.5612H18.0412C18.4189 10.0273 18.7445 9.44134 18.9789 8.8293H18.9918ZM4.26391 29.0134V18.5177C4.26391 15.9784 6.33446 13.9079 8.87376 13.9079H9.99363C9.05605 15.2101 8.5091 16.7988 8.5091 18.5177H11.8558C11.8558 15.9784 13.9262 13.9079 16.4655 13.9079H17.6376C16.7 15.2101 16.153 16.7988 16.153 18.5177V29.0134H4.26391Z" fill="black"/>
<path d="M26.5708 34.4566H23.1851V37.66H26.5708V34.4566Z" fill="black"/>
</svg>
