<svg width="204" height="31" viewBox="0 0 204 31" fill="none" xmlns="http://www.w3.org/2000/svg">
<g opacity="0.96">
<path d="M3.065 2.86H5.92499C4.34499 2.86 3.065 1.58 3.065 0C3.065 1.58 1.78502 2.86 0.205017 2.86H3.065Z" fill="black"/>
<path d="M3.065 2.85999H0.205017C1.78502 2.85999 3.065 4.13998 3.065 5.71999C3.065 4.13998 4.34499 2.85999 5.92499 2.85999H3.065Z" fill="black"/>
<path d="M10.935 6.01H16.945C13.625 6.01 10.935 3.32 10.935 0C10.935 3.32 8.24499 6.01 4.92499 6.01H10.935Z" fill="black"/>
<path d="M10.935 6.01001H4.92499C8.24499 6.01001 10.935 8.70001 10.935 12.02C10.935 8.70001 13.625 6.01001 16.945 6.01001H10.935Z" fill="black"/>
<path d="M21.245 23.38C21.795 25.06 22.345 26.43 22.905 27.5C23.465 28.56 23.945 29.25 24.355 29.55V29.76H19.335V29.55C19.835 29.18 19.485 27.12 18.285 23.39L15.685 15.49L12.425 25.46C13.315 27.69 14.105 29.06 14.785 29.56V29.77H9.77502V29.56C10.275 29.19 9.92497 27.14 8.71497 23.4L6.125 15.5L3.52502 23.4C3.43502 23.67 3.365 23.89 3.315 24.06C3.265 24.23 3.20502 24.49 3.14502 24.83C3.08502 25.17 3.065 25.47 3.065 25.74C3.065 26 3.11501 26.31 3.19501 26.67C3.27501 27.03 3.40502 27.36 3.58502 27.66C3.76502 27.96 4.01497 28.28 4.34497 28.62C4.66497 28.95 5.05501 29.27 5.51501 29.56V29.77H0.205017V29.56C0.535017 29.36 0.92501 28.83 1.38501 27.97C1.84501 27.11 2.22498 26.28 2.54498 25.49C2.86498 24.69 3.11499 24 3.30499 23.41L6.005 15.19L5.08502 12.39H8.04498L11.655 23.41C11.855 24.02 12.065 24.61 12.285 25.18L15.555 15.18L14.645 12.38H17.605L21.215 23.4L21.245 23.38Z" fill="black"/>
<path d="M24.635 12.37H29.645V12.58C28.965 13.01 28.625 14.88 28.625 18.18V23.95C28.625 27.25 28.965 29.12 29.645 29.55V29.76H24.635V29.55C25.315 29.12 25.655 27.25 25.655 23.95V18.18C25.655 14.88 25.315 13.01 24.635 12.58V12.37Z" fill="black"/>
<path d="M42.875 23.4C43.665 24.79 44.495 26.08 45.375 27.27C46.255 28.46 46.955 29.22 47.475 29.55V29.76H41.735V29.55C41.915 29.44 42.045 29.29 42.115 29.12C42.185 28.95 42.205 28.72 42.175 28.44C42.135 28.16 42.075 27.87 41.975 27.56C41.875 27.25 41.715 26.87 41.495 26.41C41.275 25.95 41.045 25.49 40.805 25.04C40.565 24.59 40.255 24.03 39.885 23.38L39.495 22.69C38.775 22.75 38.115 22.78 37.495 22.78H34.705V23.95C34.705 27.25 35.045 29.12 35.725 29.55V29.76H30.715V29.55C31.395 29.12 31.735 27.25 31.735 23.95V18.18C31.735 14.88 31.395 13.01 30.715 12.58V12.37H31.735C32.785 12.37 33.975 12.31 35.295 12.2C36.615 12.09 37.605 12.03 38.265 12.03C39.555 12.03 40.705 12.15 41.715 12.4C42.725 12.64 43.535 12.95 44.145 13.32C44.755 13.69 45.255 14.12 45.645 14.62C46.035 15.12 46.305 15.59 46.455 16.04C46.605 16.49 46.675 16.95 46.675 17.4C46.675 17.74 46.635 18.08 46.565 18.4C46.495 18.73 46.355 19.09 46.155 19.47C45.955 19.86 45.695 20.21 45.375 20.54C45.055 20.86 44.625 21.18 44.085 21.48C43.545 21.78 42.915 22.03 42.195 22.23L42.855 23.4H42.875ZM37.515 22.56C38.555 22.56 39.465 22.43 40.265 22.16C41.055 21.89 41.665 21.57 42.085 21.19C42.515 20.81 42.855 20.36 43.115 19.86C43.375 19.35 43.545 18.91 43.615 18.53C43.685 18.15 43.725 17.78 43.725 17.41C43.725 17.17 43.705 16.91 43.675 16.65C43.645 16.39 43.575 16.08 43.465 15.74C43.365 15.4 43.225 15.07 43.065 14.75C42.895 14.44 42.675 14.12 42.395 13.81C42.115 13.5 41.785 13.23 41.425 13.01C41.055 12.79 40.605 12.6 40.065 12.46C39.525 12.32 38.935 12.25 38.285 12.25C37.305 12.25 36.465 12.46 35.775 12.86C35.085 13.27 34.735 13.8 34.725 14.44V22.57H37.515V22.56Z" fill="black"/>
<path d="M60.285 23.4C61.075 24.79 61.905 26.08 62.785 27.27C63.665 28.46 64.365 29.22 64.885 29.55V29.76H59.145V29.55C59.325 29.44 59.455 29.29 59.525 29.12C59.595 28.95 59.615 28.72 59.585 28.44C59.545 28.16 59.485 27.87 59.385 27.56C59.285 27.25 59.125 26.87 58.905 26.41C58.685 25.95 58.455 25.49 58.215 25.04C57.975 24.59 57.665 24.03 57.295 23.38L56.905 22.69C56.185 22.75 55.525 22.78 54.905 22.78H52.115V23.95C52.115 27.25 52.455 29.12 53.135 29.55V29.76H48.125V29.55C48.805 29.12 49.145 27.25 49.145 23.95V18.18C49.145 14.88 48.805 13.01 48.125 12.58V12.37H49.145C50.195 12.37 51.385 12.31 52.705 12.2C54.025 12.09 55.015 12.03 55.675 12.03C56.965 12.03 58.115 12.15 59.125 12.4C60.135 12.64 60.945 12.95 61.555 13.32C62.165 13.69 62.665 14.12 63.055 14.62C63.445 15.12 63.715 15.59 63.865 16.04C64.015 16.49 64.085 16.95 64.085 17.4C64.085 17.74 64.045 18.08 63.975 18.4C63.905 18.73 63.765 19.09 63.565 19.47C63.365 19.86 63.105 20.21 62.785 20.54C62.465 20.86 62.035 21.18 61.495 21.48C60.955 21.78 60.325 22.03 59.605 22.23L60.265 23.4H60.285ZM54.925 22.56C55.965 22.56 56.875 22.43 57.675 22.16C58.465 21.89 59.075 21.57 59.495 21.19C59.925 20.81 60.265 20.36 60.525 19.86C60.785 19.35 60.955 18.91 61.025 18.53C61.095 18.15 61.135 17.78 61.135 17.41C61.135 17.17 61.115 16.91 61.085 16.65C61.055 16.39 60.985 16.08 60.875 15.74C60.775 15.4 60.635 15.07 60.475 14.75C60.305 14.44 60.085 14.12 59.805 13.81C59.525 13.5 59.195 13.23 58.835 13.01C58.465 12.79 58.015 12.6 57.475 12.46C56.935 12.32 56.345 12.25 55.695 12.25C54.715 12.25 53.875 12.46 53.185 12.86C52.495 13.27 52.145 13.8 52.135 14.44V22.57H54.925V22.56Z" fill="black"/>
<path d="M70.905 12.73C72.005 12.26 73.1651 12.02 74.3751 12.02C75.5851 12.02 76.745 12.26 77.845 12.73C78.945 13.2 79.8951 13.85 80.6851 14.65C81.4851 15.46 82.1151 16.42 82.5851 17.54C83.0551 18.66 83.295 19.83 83.295 21.05C83.295 22.27 83.0551 23.45 82.5851 24.56C82.1151 25.68 81.4751 26.64 80.6851 27.45C79.8851 28.26 78.945 28.9 77.845 29.37C76.745 29.84 75.5951 30.08 74.3751 30.08C73.1551 30.08 72.005 29.84 70.905 29.37C69.805 28.9 68.8551 28.25 68.0551 27.45C67.2551 26.64 66.625 25.68 66.155 24.56C65.685 23.44 65.4451 22.27 65.4451 21.05C65.4451 19.83 65.685 18.65 66.155 17.54C66.625 16.42 67.2651 15.46 68.0551 14.65C68.8551 13.84 69.795 13.2 70.905 12.73ZM71.3851 28.68C72.2951 29.47 73.2951 29.86 74.3751 29.86C75.4551 29.86 76.4451 29.47 77.3651 28.68C78.2751 27.89 79.005 26.82 79.535 25.47C80.065 24.12 80.3351 22.64 80.3351 21.04C80.3351 19.44 80.065 17.96 79.535 16.61C79.005 15.25 78.2851 14.18 77.3651 13.4C76.4551 12.61 75.4551 12.22 74.3751 12.22C73.2951 12.22 72.3051 12.61 71.3851 13.4C70.4751 14.19 69.745 15.26 69.215 16.61C68.685 17.97 68.415 19.44 68.415 21.04C68.415 22.64 68.685 24.11 69.215 25.47C69.745 26.82 70.4651 27.89 71.3851 28.68Z" fill="black"/>
<path d="M96.415 23.4C97.205 24.79 98.035 26.08 98.915 27.27C99.795 28.46 100.495 29.22 101.015 29.55V29.76H95.275V29.55C95.455 29.44 95.585 29.29 95.655 29.12C95.725 28.95 95.745 28.72 95.715 28.44C95.675 28.16 95.615 27.87 95.515 27.56C95.415 27.25 95.255 26.87 95.035 26.41C94.815 25.95 94.585 25.49 94.345 25.04C94.105 24.59 93.795 24.03 93.425 23.38L93.035 22.69C92.315 22.75 91.655 22.78 91.035 22.78H88.245V23.95C88.245 27.25 88.585 29.12 89.265 29.55V29.76H84.255V29.55C84.935 29.12 85.275 27.25 85.275 23.95V18.18C85.275 14.88 84.935 13.01 84.255 12.58V12.37H85.275C86.325 12.37 87.515 12.31 88.835 12.2C90.155 12.09 91.145 12.03 91.805 12.03C93.095 12.03 94.245 12.15 95.255 12.4C96.265 12.64 97.075 12.95 97.685 13.32C98.295 13.69 98.795 14.12 99.185 14.62C99.575 15.12 99.845 15.59 99.995 16.04C100.145 16.49 100.215 16.95 100.215 17.4C100.215 17.74 100.175 18.08 100.105 18.4C100.035 18.73 99.895 19.09 99.695 19.47C99.495 19.86 99.235 20.21 98.915 20.54C98.595 20.86 98.165 21.18 97.625 21.48C97.085 21.78 96.455 22.03 95.735 22.23L96.395 23.4H96.415ZM91.055 22.56C92.095 22.56 93.005 22.43 93.805 22.16C94.595 21.89 95.205 21.57 95.625 21.19C96.055 20.81 96.395 20.36 96.655 19.86C96.915 19.35 97.085 18.91 97.155 18.53C97.225 18.15 97.265 17.78 97.265 17.41C97.265 17.17 97.245 16.91 97.215 16.65C97.185 16.39 97.115 16.08 97.005 15.74C96.905 15.4 96.765 15.07 96.605 14.75C96.435 14.44 96.215 14.12 95.935 13.81C95.655 13.5 95.325 13.23 94.965 13.01C94.595 12.79 94.145 12.6 93.605 12.46C93.065 12.32 92.475 12.25 91.825 12.25C90.845 12.25 90.005 12.46 89.315 12.86C88.625 13.27 88.275 13.8 88.265 14.44V22.57H91.055V22.56Z" fill="black"/>
<path d="M130.165 23.38C130.715 25.06 131.265 26.43 131.825 27.5C132.385 28.56 132.865 29.25 133.275 29.55V29.76H128.255V29.55C128.755 29.18 128.405 27.12 127.205 23.39L124.605 15.49L121.345 25.46C122.235 27.69 123.025 29.06 123.705 29.56V29.77H118.695V29.56C119.195 29.19 118.845 27.14 117.635 23.4L115.045 15.5L112.445 23.4C112.355 23.67 112.285 23.89 112.235 24.06C112.185 24.23 112.125 24.49 112.065 24.83C112.005 25.17 111.985 25.47 111.985 25.74C111.985 26 112.035 26.31 112.115 26.67C112.195 27.03 112.325 27.36 112.505 27.66C112.685 27.96 112.935 28.28 113.265 28.62C113.585 28.95 113.975 29.27 114.435 29.56V29.77H109.125V29.56C109.455 29.36 109.845 28.83 110.305 27.97C110.765 27.11 111.145 26.28 111.465 25.49C111.785 24.69 112.035 24 112.225 23.41L114.925 15.19L114.005 12.39H116.965L120.575 23.41C120.775 24.02 120.985 24.61 121.205 25.18L124.475 15.18L123.565 12.38H126.525L130.135 23.4L130.165 23.38Z" fill="black"/>
<path d="M137.125 12.73C138.225 12.26 139.385 12.02 140.595 12.02C141.805 12.02 142.965 12.26 144.065 12.73C145.165 13.2 146.115 13.85 146.905 14.65C147.705 15.46 148.335 16.42 148.805 17.54C149.275 18.66 149.515 19.83 149.515 21.05C149.515 22.27 149.275 23.45 148.805 24.56C148.335 25.68 147.695 26.64 146.905 27.45C146.105 28.26 145.165 28.9 144.065 29.37C142.965 29.84 141.815 30.08 140.595 30.08C139.375 30.08 138.225 29.84 137.125 29.37C136.025 28.9 135.075 28.25 134.275 27.45C133.475 26.64 132.845 25.68 132.375 24.56C131.905 23.44 131.665 22.27 131.665 21.05C131.665 19.83 131.905 18.65 132.375 17.54C132.845 16.42 133.485 15.46 134.275 14.65C135.075 13.84 136.015 13.2 137.125 12.73ZM137.615 28.68C138.525 29.47 139.525 29.86 140.605 29.86C141.685 29.86 142.675 29.47 143.595 28.68C144.505 27.89 145.235 26.82 145.765 25.47C146.295 24.12 146.565 22.64 146.565 21.04C146.565 19.44 146.295 17.96 145.765 16.61C145.235 15.25 144.515 14.18 143.595 13.4C142.685 12.61 141.685 12.22 140.605 12.22C139.525 12.22 138.535 12.61 137.615 13.4C136.705 14.19 135.975 15.26 135.445 16.61C134.915 17.97 134.645 19.44 134.645 21.04C134.645 22.64 134.915 24.11 135.445 25.47C135.975 26.82 136.695 27.89 137.615 28.68Z" fill="black"/>
<path d="M149.535 12.37H165.435V16.72H165.225C164.735 15.93 164.195 15.25 163.615 14.67C163.025 14.09 162.455 13.66 161.905 13.38C161.345 13.1 160.845 12.89 160.395 12.77C159.945 12.64 159.535 12.58 159.155 12.58H158.965V23.95C158.965 27.25 159.305 29.12 159.995 29.55V29.76H154.975V29.55C155.665 29.12 156.005 27.25 156.005 23.95V12.58H155.825C155.445 12.58 155.035 12.64 154.575 12.77C154.125 12.9 153.615 13.1 153.065 13.38C152.505 13.66 151.935 14.09 151.355 14.67C150.765 15.25 150.235 15.93 149.745 16.72H149.545V12.37H149.535Z" fill="black"/>
<path d="M165.535 12.37H170.545V12.58C169.865 13.01 169.525 14.88 169.525 18.18V23.95C169.525 27.25 169.865 29.12 170.545 29.55V29.76H165.535V29.55C166.215 29.12 166.555 27.25 166.555 23.95V18.18C166.555 14.88 166.215 13.01 165.535 12.58V12.37Z" fill="black"/>
<path d="M176.495 12.73C177.595 12.26 178.755 12.02 179.965 12.02C181.175 12.02 182.335 12.26 183.435 12.73C184.535 13.2 185.485 13.85 186.275 14.65C187.075 15.46 187.705 16.42 188.175 17.54C188.645 18.66 188.885 19.83 188.885 21.05C188.885 22.27 188.645 23.45 188.175 24.56C187.705 25.68 187.065 26.64 186.275 27.45C185.475 28.26 184.535 28.9 183.435 29.37C182.335 29.84 181.185 30.08 179.965 30.08C178.745 30.08 177.595 29.84 176.495 29.37C175.395 28.9 174.445 28.25 173.645 27.45C172.845 26.64 172.215 25.68 171.745 24.56C171.275 23.44 171.035 22.27 171.035 21.05C171.035 19.83 171.275 18.65 171.745 17.54C172.215 16.42 172.855 15.46 173.645 14.65C174.445 13.84 175.385 13.2 176.495 12.73ZM176.985 28.68C177.895 29.47 178.895 29.86 179.975 29.86C181.055 29.86 182.045 29.47 182.965 28.68C183.875 27.89 184.605 26.82 185.135 25.47C185.665 24.12 185.935 22.64 185.935 21.04C185.935 19.44 185.665 17.96 185.135 16.61C184.605 15.25 183.885 14.18 182.965 13.4C182.055 12.61 181.055 12.22 179.975 12.22C178.895 12.22 177.905 12.61 176.985 13.4C176.075 14.19 175.345 15.26 174.815 16.61C174.285 17.97 174.015 19.44 174.015 21.04C174.015 22.64 174.285 24.11 174.815 25.47C175.345 26.82 176.065 27.89 176.985 28.68Z" fill="black"/>
<path d="M202.055 18.18V27.32L203.725 29.76H200.765L190.635 14.93V21.07C190.635 21.91 190.695 22.71 190.825 23.49C190.955 24.27 191.165 25.04 191.455 25.83C191.745 26.61 192.165 27.33 192.725 27.99C193.285 28.64 193.945 29.17 194.715 29.57V29.78H189.405V29.57C190.085 29.14 190.425 27.27 190.425 23.97V14.64L188.885 12.39H191.845L201.845 27.04V21.09C201.845 20.43 201.805 19.8 201.735 19.18C201.665 18.56 201.525 17.92 201.335 17.26C201.145 16.59 200.905 15.98 200.605 15.42C200.305 14.86 199.915 14.33 199.425 13.84C198.945 13.34 198.385 12.93 197.765 12.61V12.4H203.075V12.61C202.385 13.04 202.045 14.91 202.045 18.21L202.055 18.18Z" fill="black"/>
<path d="M203.725 20.9087H0.214966V21.3428H203.725V20.9087Z" fill="black"/>
</g>
</svg>
