<svg width="157" height="30" viewBox="0 0 157 30" fill="none" xmlns="http://www.w3.org/2000/svg">
<path d="M36.275 25.28C36.545 25.57 36.685 25.92 36.685 26.32C36.685 26.72 36.545 27.07 36.275 27.36C36.005 27.65 35.675 27.8 35.285 27.8H34.295V29.48H33.575V24.84H35.285C35.675 24.84 36.005 24.99 36.275 25.28ZM35.695 26.89C35.855 26.78 35.935 26.59 35.935 26.32C35.935 26.05 35.855 25.88 35.695 25.76C35.535 25.65 35.365 25.59 35.185 25.59H34.295V27.05H35.185C35.365 27.05 35.535 26.99 35.695 26.88V26.89Z" fill="black"/>
<path d="M37.655 29.46V24.83H38.365V28.71H40.455V29.46H37.665H37.655Z" fill="black"/>
<path d="M41.835 29.48H41.095L42.675 24.84H43.505L45.095 29.48H44.345L43.985 28.43H42.185L41.825 29.48H41.835ZM43.095 25.78L42.445 27.69H43.735L43.095 25.78Z" fill="black"/>
<path d="M49.255 27.93C49.185 28.29 49.005 28.66 48.715 29.03C48.415 29.4 47.995 29.59 47.455 29.59C46.875 29.59 46.405 29.36 46.065 28.91C45.725 28.46 45.555 27.87 45.555 27.15C45.555 26.43 45.725 25.84 46.065 25.39C46.405 24.94 46.865 24.71 47.455 24.71C48.045 24.71 48.455 24.9 48.745 25.29C49.035 25.67 49.195 26.02 49.245 26.33H48.465C48.425 26.14 48.325 25.95 48.165 25.76C48.015 25.57 47.785 25.47 47.475 25.47C47.125 25.47 46.845 25.62 46.635 25.93C46.425 26.24 46.325 26.65 46.325 27.15C46.325 27.65 46.425 28.07 46.635 28.38C46.845 28.69 47.125 28.85 47.475 28.85C47.765 28.85 47.995 28.75 48.165 28.54C48.325 28.34 48.435 28.13 48.485 27.92H49.255V27.93Z" fill="black"/>
<path d="M50.245 29.48V24.85H53.135V25.6H50.955V26.75H53.035V27.49H50.955V28.74H53.195V29.49H50.245V29.48Z" fill="black"/>
<path d="M58.265 25.6V29.5H57.545V25.6H56.255V24.86H59.565V25.6H58.275H58.265Z" fill="black"/>
<path d="M62.895 29.49V27.42H61.125V29.48H60.405V24.84H61.125V26.67H62.895V24.84H63.615V29.48H62.895V29.49Z" fill="black"/>
<path d="M65.225 29.48H64.485L66.065 24.84H66.895L68.485 29.48H67.735L67.375 28.43H65.575L65.215 29.48H65.225ZM66.485 25.78L65.835 27.69H67.125L66.485 25.78Z" fill="black"/>
<path d="M70.415 25.6V29.5H69.695V25.6H68.405V24.86H71.715V25.6H70.425H70.415Z" fill="black"/>
<path d="M78.105 29.46V26.85L77.285 29.47H76.455L75.635 26.87V29.47H74.925V24.84H75.795L76.885 28.45L77.955 24.84H78.825V29.47H78.115L78.105 29.46Z" fill="black"/>
<path d="M80.425 29.48H79.685L81.265 24.84H82.095L83.685 29.48H82.935L82.575 28.43H80.775L80.415 29.48H80.425ZM81.695 25.78L81.045 27.69H82.335L81.695 25.78Z" fill="black"/>
<path d="M87.175 29.48L85.625 27.34C85.555 27.41 85.485 27.48 85.405 27.56C85.325 27.64 85.265 27.7 85.215 27.75V29.48H84.505V24.85H85.215V26.76C85.465 26.49 85.745 26.18 86.055 25.83C86.365 25.48 86.635 25.15 86.855 24.84H87.725C87.465 25.2 87.195 25.55 86.915 25.89C86.635 26.23 86.375 26.53 86.135 26.8L88.035 29.49H87.175V29.48Z" fill="black"/>
<path d="M88.775 29.48V24.85H91.665V25.6H89.485V26.75H91.565V27.49H89.485V28.74H91.725V29.49H88.775V29.48Z" fill="black"/>
<path d="M95.635 27.55C95.765 27.76 95.815 28.01 95.785 28.3C95.755 28.65 95.605 28.95 95.335 29.22C95.055 29.49 94.675 29.62 94.195 29.62C93.675 29.62 93.255 29.43 92.955 29.06C92.645 28.69 92.505 28.3 92.525 27.91H93.235C93.235 28.17 93.325 28.4 93.515 28.59C93.705 28.78 93.935 28.87 94.205 28.87C94.455 28.87 94.645 28.82 94.785 28.72C94.915 28.62 95.005 28.48 95.035 28.32C95.065 28.17 95.035 28.04 94.975 27.93C94.905 27.82 94.805 27.73 94.675 27.67C94.495 27.57 94.305 27.5 94.115 27.46C93.915 27.42 93.715 27.36 93.505 27.26C93.245 27.14 93.035 26.98 92.885 26.77C92.735 26.56 92.675 26.3 92.685 25.99C92.705 25.7 92.835 25.42 93.075 25.14C93.315 24.87 93.685 24.73 94.175 24.73C94.735 24.73 95.135 24.92 95.365 25.29C95.595 25.67 95.705 25.99 95.685 26.26H94.975C94.975 26.05 94.905 25.87 94.775 25.71C94.645 25.55 94.445 25.47 94.175 25.47C93.905 25.47 93.705 25.53 93.605 25.65C93.505 25.77 93.445 25.9 93.435 26.03C93.425 26.19 93.475 26.31 93.585 26.4C93.695 26.49 93.825 26.57 93.955 26.62C94.105 26.68 94.285 26.73 94.495 26.79C94.715 26.84 94.925 26.93 95.145 27.06C95.335 27.17 95.505 27.33 95.625 27.54L95.635 27.55Z" fill="black"/>
<path d="M102.215 27.41C102.375 27.61 102.445 27.89 102.425 28.23C102.405 28.6 102.265 28.9 101.995 29.13C101.725 29.36 101.385 29.48 100.975 29.48H99.185V24.84H100.965C101.335 24.84 101.625 24.94 101.855 25.15C102.085 25.36 102.205 25.6 102.245 25.88C102.285 26.17 102.245 26.41 102.135 26.6C102.015 26.79 101.895 26.93 101.775 27C101.915 27.06 102.065 27.19 102.225 27.4L102.215 27.41ZM101.335 26.54C101.445 26.44 101.495 26.3 101.495 26.13C101.495 25.97 101.435 25.85 101.325 25.74C101.215 25.63 101.065 25.59 100.865 25.59H99.895V26.69H100.855C101.055 26.69 101.215 26.64 101.325 26.54H101.335ZM101.495 28.53C101.605 28.4 101.665 28.25 101.665 28.08C101.665 27.91 101.605 27.77 101.495 27.63C101.385 27.5 101.205 27.43 100.945 27.43H99.905V28.73H100.925C101.185 28.73 101.375 28.66 101.495 28.53Z" fill="black"/>
<path d="M103.465 29.48V24.85H106.355V25.6H104.175V26.75H106.255V27.49H104.175V28.74H106.415V29.49H103.465V29.48Z" fill="black"/>
<path d="M107.915 29.48H107.175L108.755 24.84H109.585L111.175 29.48H110.425L110.065 28.43H108.265L107.905 29.48H107.915ZM109.185 25.78L108.535 27.69H109.825L109.185 25.78Z" fill="black"/>
<path d="M115.015 28.01C115.015 28.48 114.865 28.87 114.575 29.16C114.285 29.45 113.885 29.6 113.395 29.6C112.905 29.6 112.505 29.45 112.215 29.16C111.925 28.86 111.785 28.48 111.785 28.01V24.85H112.515V27.79C112.515 28.04 112.565 28.28 112.665 28.51C112.765 28.74 113.005 28.86 113.405 28.86C113.805 28.86 114.045 28.74 114.145 28.51C114.245 28.28 114.295 28.04 114.295 27.79V24.85H115.025V28.01H115.015Z" fill="black"/>
<path d="M117.875 25.6V29.5H117.155V25.6H115.865V24.86H119.175V25.6H117.885H117.875Z" fill="black"/>
<path d="M121.945 27.74V29.47H121.285V27.74L119.845 24.88H120.585L121.615 26.91L122.655 24.88H123.395L121.955 27.74H121.945Z" fill="black"/>
<path d="M29.415 0.460022C23.825 0.460022 19.295 4.99002 19.295 10.59C19.295 16.19 23.825 20.72 29.415 20.72C35.005 20.72 39.535 16.19 39.535 10.59C39.535 4.99002 35.005 0.460022 29.415 0.460022ZM29.415 17.4C25.655 17.4 22.595 14.35 22.595 10.58C22.595 6.81002 25.645 3.76002 29.415 3.76002C33.185 3.76002 36.235 6.81002 36.235 10.58C36.235 14.35 33.185 17.4 29.415 17.4Z" fill="black"/>
<path d="M71.705 0.460022C66.115 0.460022 61.585 4.99002 61.585 10.59C61.585 16.19 66.115 20.72 71.705 20.72C77.295 20.72 81.825 16.19 81.825 10.59C81.825 4.99002 77.295 0.460022 71.705 0.460022ZM71.705 17.4C67.945 17.4 64.885 14.35 64.885 10.58C64.885 6.81002 67.935 3.76002 71.705 3.76002C75.475 3.76002 78.525 6.81002 78.525 10.58C78.525 14.35 75.475 17.4 71.705 17.4Z" fill="black"/>
<path d="M100.275 6.63005C100.275 0.740052 94.775 0.740051 94.775 0.740051H87.265V20.2301H90.595V12.8701H92.455L97.295 20.2301H101.435L96.015 12.5201C96.015 12.5201 100.275 11.5501 100.275 6.63005ZM93.585 10.0401H90.705V3.76005H94.345C94.345 3.76005 96.905 3.76005 96.905 7.05005C96.905 8.57005 96.005 9.32005 95.215 9.69005C94.705 9.92005 94.145 10.0301 93.585 10.0301V10.0401Z" fill="black"/>
<path d="M109.455 0.740051H106.045V20.2301H109.455V0.740051Z" fill="black"/>
<path d="M126.805 13.8401C126.805 15.9401 125.105 17.6401 123.005 17.6401C120.905 17.6401 119.205 15.9401 119.205 13.8401V0.740051H115.755V13.8101C115.755 17.5301 118.765 20.5401 122.485 20.5401H123.275C126.995 20.5401 130.005 17.5301 130.005 13.8101V0.740051H126.795V13.8401H126.805Z" fill="black"/>
<path d="M153.265 0.740051L146.365 11.6701L139.625 0.740051H136.535V20.2301H139.825V6.82005L146.485 18.18L152.995 6.82005V20.2301H156.205V0.740051H153.265Z" fill="black"/>
<path d="M0.765015 10.5401C0.765015 16.0901 5.26502 20.5901 10.815 20.5901C13.075 20.5901 15.225 19.7601 16.905 18.5001V14.5501C15.635 16.2201 13.595 17.3101 11.295 17.3101C7.45502 17.3101 4.34502 14.2801 4.34502 10.5401C4.34502 6.80005 7.45502 3.77005 11.295 3.77005C13.605 3.77005 15.655 4.87005 16.915 6.56005L16.935 2.57005C15.225 1.22005 13.165 0.490051 10.815 0.490051C5.26502 0.490051 0.765015 4.99005 0.765015 10.5401Z" fill="black"/>
<path d="M42.955 10.5401C42.955 16.0901 47.455 20.5901 53.005 20.5901C55.265 20.5901 57.415 19.7601 59.095 18.5001V14.5501C57.825 16.2201 55.785 17.3101 53.485 17.3101C49.645 17.3101 46.535 14.2801 46.535 10.5401C46.535 6.80005 49.645 3.77005 53.485 3.77005C55.795 3.77005 57.845 4.87005 59.105 6.56005L59.125 2.57005C57.415 1.22005 55.355 0.490051 53.005 0.490051C47.455 0.490051 42.955 4.99005 42.955 10.5401Z" fill="black"/>
</svg>
