<svg width="170" height="42" viewBox="0 0 170 42" fill="none" xmlns="http://www.w3.org/2000/svg">
<path d="M69.9397 11.7021C66.727 11.7021 64.7357 17.3973 64.7357 17.3973C64.0188 19.0965 63.3683 20.3444 62.7709 21.1277C64.1781 23.1588 65.2933 24.4466 66.1031 24.9776C66.9261 25.5219 67.7758 25.7874 68.6785 25.7874C69.9264 25.7874 71.5062 25.2033 72.1833 24.0217H72.462C72.1832 25.1103 71.5858 25.9865 70.6831 26.6503C69.7804 27.3141 68.7449 27.6459 67.5501 27.6459C64.9746 27.6459 62.7045 26.3582 60.7531 23.7695C58.4431 26.3582 55.9872 27.6459 53.3852 27.6459C52.4426 27.6459 51.5266 27.4866 50.6106 27.1282C49.6946 26.7698 48.8848 26.2653 48.1679 25.6148C47.451 24.9643 46.8802 24.181 46.4421 23.2783C46.004 22.3756 45.8049 21.3799 45.8314 20.2913C45.8314 18.6452 46.2828 17.2513 47.1722 16.1096C48.075 14.9811 49.8008 13.5607 52.3762 11.8349C50.8363 9.68424 50.053 7.73274 50.053 5.99366C50.053 4.63956 50.5841 3.41822 51.6328 2.32963C52.6816 1.24104 54.0091 0.710022 55.6155 0.710022C57.0492 0.710022 58.3369 1.10829 59.4786 1.91809C60.6336 2.74117 61.2044 3.78993 61.2044 5.09093C61.2044 7.12207 59.306 9.10012 55.496 11.0118C56.6908 12.6048 57.8325 14.1713 58.9343 15.7113C60.0362 17.238 61.1115 18.7514 62.1602 20.2515C62.917 19.2027 63.5011 18.1142 63.9392 16.9857C64.3772 15.8573 64.5897 14.9811 64.5897 14.3307C64.5897 12.8172 63.5542 11.9278 61.4965 11.7021V10.7861H69.9131V11.7287L69.9397 11.7021ZM52.9736 12.6447C51.6063 13.5076 50.5309 14.49 49.7875 15.6184C49.0308 16.7601 48.6591 17.8486 48.6591 18.8841C48.6591 20.517 49.3096 22.057 50.6239 23.504C51.9249 24.9377 53.4117 25.6679 55.0579 25.6679C56.8766 25.6679 58.5759 24.7652 60.1556 22.9597C58.7617 20.8356 57.4607 18.9107 56.2659 17.1982C55.0711 15.4856 53.9826 13.9722 52.9736 12.6579V12.6447ZM54.965 10.2418C57.6068 8.70185 58.921 7.02914 58.921 5.22368C58.921 4.69266 58.8414 4.21475 58.6954 3.76338C58.5493 3.32529 58.3236 2.9403 58.0448 2.62169C57.7661 2.30308 57.4209 2.06412 57.0227 1.89154C56.6244 1.71896 56.1863 1.6393 55.7216 1.6393C54.7525 1.6393 53.9959 1.95792 53.425 2.59514C52.8542 3.21909 52.5754 4.00234 52.5754 4.95817C52.5754 6.25917 53.3719 8.01153 54.9782 10.2418H54.965Z" fill="black"/>
<path d="M21.3515 6.04681H27.737V24.1678C27.737 24.5528 27.8033 24.8714 27.9494 25.1237C28.0954 25.3759 28.3211 25.5618 28.6397 25.6945C28.8786 25.8007 29.1176 25.8936 29.3566 25.9467C29.5955 25.9998 29.861 26.0397 30.1664 26.0662V27.1681H22.1878V26.0662C22.4401 26.0397 22.7188 26.0131 22.9976 25.9866C23.2897 25.96 23.5286 25.9202 23.7145 25.8671C24.0198 25.7609 24.2588 25.5883 24.4048 25.3493C24.5641 25.0971 24.6305 24.7785 24.6305 24.3802V9.63119C24.6305 6.40525 21.3249 6.06009 21.3249 6.06009L21.3515 6.04681Z" fill="black"/>
<path d="M33.7906 10.826H39.8044V24.1678C39.8044 24.5528 39.884 24.8714 40.0301 25.1237C40.1761 25.3759 40.4151 25.5617 40.7337 25.6945C40.9726 25.7874 41.2116 25.8804 41.4373 25.9335C41.663 25.9866 41.9284 26.0397 42.2072 26.0529V27.1548H34.3083V26.0529C34.5605 26.0264 34.8261 26.0131 35.0916 25.9866C35.3571 25.96 35.5961 25.9202 35.7952 25.8538C36.1005 25.7609 36.3395 25.575 36.4855 25.3361C36.6315 25.0838 36.7112 24.7652 36.7112 24.367V13.813C36.7112 11.1446 33.7906 10.826 33.7906 10.826ZM39.8044 7.58677C39.8044 8.05141 39.6583 8.44967 39.353 8.78156C39.0477 9.12672 38.676 9.2993 38.2379 9.2993C37.8263 9.2993 37.4679 9.14 37.1758 8.80811C36.8838 8.47623 36.7245 8.10451 36.7245 7.69297C36.7245 7.25488 36.8705 6.86989 37.1758 6.53801C37.4812 6.20612 37.8263 6.04681 38.2379 6.04681C38.7025 6.04681 39.0742 6.20612 39.3663 6.51146C39.6584 6.81679 39.8044 7.17523 39.8044 7.58677Z" fill="black"/>
<path d="M85.8968 27.7123C84.4896 27.7123 83.1487 27.4335 81.861 26.8759C80.5733 26.3184 79.4316 25.5218 78.436 24.4863C77.4536 23.4509 76.6703 22.1764 76.0862 20.6763C75.502 19.1762 75.21 17.4902 75.21 15.6051C75.21 13.7199 75.5021 12.0207 76.0729 10.4807C76.6438 8.95405 77.4403 7.6265 78.4625 6.52463C79.4714 5.42277 80.6529 4.58642 82.0203 3.98902C83.3877 3.39162 85.0604 3.08629 86.6136 3.08629C86.6136 3.08629 93.5169 2.83405 94.393 10.7728C94.4196 11.0383 94.2868 11.3038 94.0612 11.4631L93.6629 11.7286C93.4771 11.8481 93.2381 11.7286 93.2248 11.5162C92.5743 1.47996 83.6267 5.22364 83.6267 5.22364C82.7107 5.70156 81.9008 6.40516 81.2371 7.33444C80.5998 8.23717 80.0954 9.36558 79.7237 10.7595C79.3652 12.1402 79.1794 13.6934 79.1794 15.3926C79.1794 16.8928 79.3652 18.2734 79.7502 19.5346C80.1352 20.7958 80.6795 21.8976 81.3831 22.8535C82.0867 23.796 82.923 24.5262 83.8921 25.0572C84.8613 25.5882 85.9366 25.8537 87.1314 25.8537C88.0208 25.8537 88.8439 25.7077 89.6006 25.4289C90.3573 25.1501 91.0078 24.7784 91.5521 24.3138C91.5521 24.3138 92.7203 23.5172 93.5302 20.9551C93.5833 20.7958 93.7691 20.7427 93.9019 20.8489L94.2337 21.1409C94.3532 21.2471 94.4063 21.3932 94.3665 21.5525C92.9328 27.9512 85.8968 27.7521 85.8968 27.7521V27.7123Z" fill="black"/>
<path d="M138.574 11.7685V15.4591C135.813 10.1356 132.985 10.2551 131.671 10.7065C131.113 10.8923 130.609 11.2773 130.343 11.8083C130.17 12.1402 130.091 12.5119 130.091 12.9102C130.091 13.6669 130.263 14.2909 130.622 14.7953C130.98 15.2865 131.485 15.6981 132.162 16.0167C132.759 16.3087 133.357 16.5477 133.927 16.7601C134.512 16.9725 135.069 17.1982 135.613 17.4371C136.105 17.6496 136.583 17.8885 137.034 18.1673C137.485 18.4328 137.884 18.7514 138.229 19.1231C138.6 19.5347 138.866 19.986 139.052 20.4772C139.224 20.9684 139.317 21.5393 139.317 22.1898C139.317 23.7297 138.746 25.0042 137.605 26.0131C136.463 27.022 135.043 27.5132 133.357 27.5132C129.56 27.5132 127.781 25.0573 127.781 25.0573V21.1808C127.781 21.1808 128.285 25.1236 131.618 26.0131C134.472 26.7831 135.799 25.814 136.397 24.8316C136.981 23.9023 137.007 22.6942 136.49 21.7251C136.436 21.6189 136.37 21.5127 136.304 21.4065C135.905 20.7958 135.321 20.3445 134.538 20.0259C134.007 19.8135 133.396 19.5745 132.706 19.3223C132.016 19.07 131.418 18.8178 130.914 18.5921C129.932 18.154 129.162 17.5699 128.617 16.853C128.073 16.1361 127.794 15.1936 127.794 14.0386C127.794 13.3748 127.927 12.7509 128.206 12.1801C128.471 11.6092 128.869 11.0915 129.361 10.6401C129.361 10.6401 129.361 10.6401 129.374 10.6401C130.197 9.89668 131.286 9.52497 132.401 9.47186C133.901 9.40549 136.41 9.68427 138.6 11.7951L138.574 11.7685Z" fill="black"/>
<path d="M141.003 9.64441H148.995C150.628 9.64441 151.942 10.0427 152.964 10.8259C153.973 11.6092 154.491 12.6579 154.491 13.9589C154.491 14.8749 154.318 15.6847 153.96 16.3883C153.602 17.0919 153.11 17.6761 152.473 18.1274C151.849 18.5921 151.159 18.924 150.416 19.1364C149.672 19.3488 148.876 19.455 148.039 19.455H146.074V24.7519C146.074 25.044 146.128 25.2962 146.22 25.5086C146.313 25.721 146.513 25.8936 146.805 26.0131C146.951 26.0662 147.216 26.1193 147.588 26.1724C147.96 26.2255 148.305 26.252 148.623 26.2653V27.1415H141.109V26.2653C141.309 26.252 141.587 26.2255 141.972 26.1724C142.344 26.1325 142.61 26.0794 142.756 26.0131C143.008 25.9069 143.18 25.7475 143.287 25.5484C143.393 25.3493 143.459 25.0838 143.459 24.7652V12.1402C143.459 12.1402 143.486 9.64441 141.03 9.64441H141.003ZM150.734 16.9459C151.013 16.5477 151.199 16.1361 151.292 15.7246C151.385 15.2998 151.424 14.9148 151.424 14.5829C151.424 14.1182 151.371 13.6403 151.252 13.1491C151.146 12.6579 150.947 12.2464 150.681 11.8747C150.389 11.4897 150.017 11.1844 149.553 10.972C149.088 10.7595 148.504 10.6533 147.8 10.6533H146.061V18.3797H147.322C148.212 18.3797 148.929 18.2469 149.486 17.9681C150.044 17.6893 150.455 17.3442 150.734 16.9326V16.9459Z" fill="black"/>
<path d="M157.319 26.2786V27.1548H151.889V26.2786C152.101 26.2653 152.367 26.2122 152.686 26.1325C153.004 26.0529 153.27 25.9467 153.469 25.8139C153.801 25.5883 154.053 25.3626 154.239 25.1236C154.425 24.8847 154.597 24.5528 154.77 24.1147C155.646 21.9242 156.615 19.455 157.677 16.7202C158.66 14.1846 159.536 11.9145 160.319 9.89666C160.385 9.7108 160.651 9.7108 160.731 9.89666L167.328 24.5129C167.448 24.8316 167.594 25.0971 167.753 25.2962C167.913 25.4953 168.125 25.6812 168.404 25.8803C168.59 25.9998 168.842 26.0927 169.147 26.1724C169.452 26.252 169.705 26.2919 169.917 26.3051V27.1813H162.642V26.3051C165.682 26.3051 164.78 25.044 164.78 25.044L162.987 21.3401C162.921 21.2074 162.788 21.1144 162.642 21.1144H156.867C156.708 21.1144 156.562 21.2074 156.509 21.3667C156.323 21.8446 156.164 22.2561 156.044 22.6278C155.898 23.0526 155.765 23.4509 155.659 23.8093C155.553 24.1678 155.473 24.4466 155.434 24.6722C155.394 24.8979 155.367 25.0705 155.367 25.2165C155.367 25.2165 155.38 26.3051 157.319 26.3051V26.2786ZM162.377 19.7869L159.655 13.7598C159.615 13.6669 159.469 13.6669 159.429 13.7598L157.106 19.7869C157.066 19.8798 157.146 19.986 157.239 19.986H162.244C162.35 19.986 162.416 19.8798 162.377 19.7869Z" fill="black"/>
<path d="M1.75685 2.01099H0.336365C0.61515 2.03754 1.75685 2.3827 1.75685 6.88308H1.78339V22.4287H1.75685C1.75685 26.9158 0.601874 27.2742 0.336365 27.3008H1.75685H17.7405V24.0084C17.7405 26.0529 15.1253 25.8405 15.1253 25.8405H9.89472C8.91233 25.8405 8.15563 25.8139 7.61133 25.7475C7.08032 25.6811 6.65549 25.5351 6.35015 25.3094C6.04481 25.0837 5.8324 24.7519 5.7262 24.3138C5.62 23.8757 5.5669 23.2783 5.5669 22.5216V14.9413H11.6736C12.7357 14.9413 12.7888 16.9592 12.7888 17.1716V17.2645H13.3729V11.1047H12.7888V11.2507C12.7888 11.4631 12.7357 13.481 11.6736 13.481H5.5669V3.43146H9.53629C10.1868 3.43146 10.7709 3.43146 11.2754 3.47129C11.2887 3.47129 11.3152 3.47129 11.3284 3.47129H15.112C15.112 3.47129 17.7272 3.52439 17.7272 5.34313V2.02426H1.74356L1.75685 2.01099Z" fill="black"/>
<path d="M111.24 12.6314C109.753 11.0914 107.854 10.3215 105.571 10.3215C103.155 10.3215 101.203 11.1313 99.7165 12.7642C98.2296 14.3838 97.4862 16.4813 97.4862 19.0302C97.4862 20.3577 97.6986 21.5525 98.1234 22.6278C98.5482 23.6899 99.1191 24.6059 99.8492 25.336C100.579 26.0927 101.416 26.6636 102.358 27.0486C103.301 27.4468 104.296 27.6327 105.332 27.6327C106.58 27.6327 107.708 27.4203 108.717 26.9822C109.726 26.5441 110.616 25.8936 111.372 25.0041C112.049 24.2342 112.567 23.2916 112.939 22.1765C113.311 21.0613 113.483 19.9329 113.483 18.7779C113.483 16.2158 112.74 14.1581 111.253 12.6181L111.24 12.6314ZM105.465 27.1813C102.518 27.1813 100.128 23.5173 100.128 18.9904C100.128 14.4634 102.518 10.7994 105.465 10.7994C108.412 10.7994 110.801 14.4634 110.801 18.9904C110.801 23.5173 108.412 27.1813 105.465 27.1813Z" fill="black"/>
<path d="M41.3576 37.0316L41.2249 39.0628H35.4899V38.7176C35.5828 38.7176 35.7155 38.6911 35.8749 38.6778C36.0342 38.6512 36.1403 38.638 36.1934 38.6114C36.2997 38.5583 36.366 38.4919 36.4059 38.4256C36.4457 38.3459 36.4722 38.253 36.4722 38.1335V33.1685C36.4722 33.0623 36.459 32.9693 36.4191 32.8897C36.3793 32.81 36.3129 32.7437 36.1934 32.6906C36.1005 32.6507 35.9943 32.6109 35.835 32.5844C35.6757 32.5578 35.5695 32.5313 35.4766 32.5313V32.1861H40.8133V33.8455H40.4549C40.3885 33.5933 40.2425 33.3411 40.0301 33.0623C39.8177 32.7835 39.6052 32.6375 39.4194 32.6109C39.3132 32.6109 39.1937 32.5844 39.061 32.5844C38.9149 32.5844 38.7556 32.5844 38.583 32.5844H37.4945V35.3324H38.2777C38.5299 35.3324 38.7158 35.3058 38.822 35.266C38.9415 35.2129 39.0344 35.1332 39.1273 35.027C39.1937 34.9341 39.2601 34.8014 39.3132 34.6553C39.3663 34.5093 39.3928 34.35 39.4194 34.2172H39.7778V36.9254H39.4194C39.4194 36.7661 39.3663 36.6068 39.3132 36.4342C39.2601 36.2617 39.1937 36.1422 39.1406 36.0625C39.0344 35.9298 38.9282 35.8501 38.7954 35.8103C38.6627 35.7705 38.5034 35.7572 38.291 35.7572H37.5077V37.8282C37.5077 38.0406 37.521 38.1999 37.5475 38.3194C37.5741 38.4388 37.6272 38.5318 37.7201 38.5849C37.7998 38.6512 37.9193 38.6911 38.0653 38.7044C38.2113 38.7176 38.4237 38.7309 38.6892 38.7309H39.1141C39.2866 38.7309 39.4327 38.7309 39.5521 38.7044C39.6716 38.7044 39.8044 38.6645 39.9371 38.638C40.0699 38.6114 40.1628 38.5583 40.2159 38.5052C40.3619 38.3459 40.5213 38.1202 40.6806 37.8016C40.8399 37.483 40.9461 37.2573 40.9992 37.1113H41.3443L41.3576 37.0316Z" fill="black"/>
<path d="M46.3624 39.0628H44.1587V38.7442C44.3047 38.7309 44.4242 38.7176 44.5304 38.6911C44.6366 38.6778 44.6897 38.6247 44.6897 38.5583C44.6897 38.5318 44.6765 38.4787 44.6366 38.4255C44.6101 38.3592 44.5703 38.3061 44.5437 38.253C44.4641 38.1202 44.3446 37.9609 44.2118 37.7485C44.0658 37.5361 43.8932 37.2839 43.6941 36.9918C43.5215 37.2042 43.3754 37.4033 43.2294 37.6025C43.0834 37.8016 42.9374 38.014 42.7781 38.2397C42.7515 38.2662 42.7382 38.3193 42.7117 38.3592C42.6851 38.399 42.6719 38.4388 42.6719 38.4786C42.6719 38.545 42.725 38.6114 42.8046 38.6512C42.8976 38.7043 43.0303 38.7309 43.2162 38.7442V39.0495H41.4373V38.7442C41.6629 38.6778 41.8355 38.5981 41.9683 38.5052C42.101 38.4123 42.2205 38.2928 42.34 38.16C42.4462 38.0273 42.5789 37.8547 42.7648 37.6157C42.9507 37.3901 43.1763 37.0847 43.4684 36.6865C43.3091 36.4475 43.0967 36.1554 42.8577 35.8236C42.6187 35.4784 42.4196 35.1996 42.2603 34.9739C42.1807 34.8544 42.0745 34.7482 41.9683 34.6819C41.8621 34.6022 41.7027 34.5624 41.5036 34.5624V34.2438H43.5879V34.5624C43.4817 34.5624 43.3755 34.5624 43.2825 34.5889C43.1896 34.6155 43.1365 34.6288 43.1365 34.6819C43.1365 34.7084 43.1365 34.7482 43.1631 34.7748C43.1896 34.8013 43.2029 34.8544 43.2427 34.8943C43.3091 35.0005 43.4286 35.1731 43.5746 35.412C43.7206 35.651 43.8932 35.8899 44.0658 36.1422C44.1853 35.9829 44.318 35.8103 44.4641 35.5979C44.6101 35.3855 44.7561 35.1863 44.8756 35.0005C44.8756 34.9739 44.9021 34.9474 44.9154 34.9208C44.9154 34.8943 44.9287 34.8544 44.9287 34.8279C44.9287 34.7615 44.8756 34.7084 44.7561 34.6686C44.6366 34.6288 44.5304 34.6022 44.4375 34.5889V34.2836H46.2031V34.5889C45.9509 34.6553 45.765 34.735 45.619 34.8146C45.473 34.9075 45.3668 35.0005 45.2606 35.12C45.1544 35.2527 45.0216 35.412 44.8756 35.6111C44.7296 35.8103 44.5172 36.0758 44.2516 36.4342C44.5437 36.8458 44.7827 37.1909 44.9685 37.4564C45.1544 37.7219 45.3402 38.0007 45.5261 38.2795C45.619 38.4255 45.7252 38.5318 45.8447 38.6114C45.9642 38.6911 46.1235 38.7442 46.3226 38.7574V39.076L46.3624 39.0628Z" fill="black"/>
<path d="M50.9558 34.8412C51.1416 35.0669 51.301 35.3324 51.3939 35.6378C51.5001 35.9431 51.5532 36.275 51.5532 36.66C51.5532 37.045 51.4868 37.3901 51.3673 37.6955C51.2478 38.0008 51.0752 38.2796 50.8628 38.492C50.6504 38.7177 50.3982 38.8903 50.1327 39.0097C49.8672 39.1292 49.5884 39.1956 49.2831 39.1956C48.9778 39.1956 48.7521 39.169 48.5662 39.1027C48.3803 39.0363 48.2343 38.9566 48.1148 38.877H48.075V40.324C48.075 40.4435 48.1016 40.5364 48.1414 40.6161C48.1812 40.6957 48.2609 40.7488 48.3538 40.7886C48.4334 40.8152 48.5396 40.8417 48.6857 40.8683C48.8317 40.8948 48.9512 40.9081 49.0441 40.9081V41.2267H46.3625V40.9081C46.4687 40.9081 46.5616 40.9081 46.6545 40.8816C46.7475 40.8816 46.8404 40.855 46.9068 40.8285C46.9997 40.8019 47.0661 40.7355 47.1059 40.6559C47.1457 40.5762 47.159 40.4833 47.159 40.3638V35.2661C47.159 35.1731 47.1325 35.0802 47.0794 34.9873C47.0263 34.8943 46.9731 34.828 46.8935 34.7749C46.8404 34.735 46.7475 34.7085 46.6545 34.6819C46.5616 34.6554 46.4554 34.6421 46.3492 34.6421V34.3235L47.9821 34.2173L48.0484 34.2704V34.8147H48.0883C48.2608 34.6288 48.46 34.4695 48.7122 34.3368C48.9644 34.204 49.2034 34.1376 49.4556 34.1376C49.7477 34.1376 50.0265 34.204 50.2787 34.3235C50.531 34.4562 50.7434 34.6156 50.9159 34.8412H50.9558ZM50.1592 38.2929C50.292 38.0937 50.3849 37.8548 50.4513 37.5893C50.5177 37.3237 50.5442 37.0317 50.5442 36.6998C50.5442 36.4608 50.5177 36.2086 50.4646 35.9697C50.4115 35.7307 50.3318 35.505 50.2256 35.3192C50.1194 35.1333 49.9734 34.9873 49.7875 34.8678C49.6017 34.7483 49.3893 34.6952 49.1503 34.6952C48.9114 34.6952 48.7122 34.7483 48.5396 34.8545C48.367 34.9607 48.221 35.0802 48.1016 35.2262V38.0672C48.1281 38.1601 48.1812 38.253 48.2476 38.346C48.3139 38.4389 48.3936 38.5185 48.4733 38.5849C48.5795 38.6646 48.6857 38.7309 48.8052 38.784C48.9246 38.8371 49.0574 38.8637 49.23 38.8637C49.4158 38.8637 49.5884 38.8239 49.761 38.7177C49.9336 38.6247 50.0663 38.492 50.1858 38.3061L50.1592 38.2929Z" fill="black"/>
<path d="M56.3324 37.9344C56.1332 38.3194 55.8677 38.6247 55.5226 38.8504C55.1907 39.0761 54.7924 39.1956 54.3543 39.1956C53.9693 39.1956 53.6242 39.1292 53.3454 38.9965C53.0666 38.8637 52.8144 38.6778 52.6285 38.4389C52.4427 38.1999 52.2966 37.9344 52.2037 37.6158C52.1108 37.2972 52.0709 36.9786 52.0709 36.6334C52.0709 36.3148 52.124 36.0095 52.217 35.7174C52.3099 35.4254 52.4559 35.1466 52.655 34.9076C52.8409 34.6819 53.0666 34.4961 53.3454 34.35C53.6242 34.204 53.9295 34.1376 54.2614 34.1376C54.5933 34.1376 54.9119 34.1907 55.1641 34.3102C55.4164 34.4164 55.6155 34.5757 55.7748 34.7616C55.9208 34.9474 56.0403 35.1598 56.1067 35.3988C56.1863 35.651 56.2129 35.9166 56.2129 36.1953V36.5139H53.04C53.04 36.8326 53.0666 37.1113 53.133 37.3769C53.1861 37.6291 53.2923 37.8548 53.4118 38.0539C53.5445 38.2398 53.7038 38.3858 53.9029 38.492C54.1021 38.5982 54.3543 38.6513 54.6331 38.6513C54.9119 38.6513 55.1774 38.5849 55.3765 38.4522C55.5889 38.3194 55.7881 38.0672 55.9872 37.722L56.3324 37.9344ZM55.2571 36.1157C55.2571 35.9298 55.2438 35.744 55.204 35.5316C55.1641 35.3192 55.1243 35.1466 55.0579 35.0138C54.9783 34.8678 54.8853 34.7483 54.7526 34.6554C54.6198 34.5625 54.4605 34.5226 54.2481 34.5226C53.903 34.5226 53.6242 34.6687 53.3985 34.9474C53.1728 35.2262 53.0533 35.6245 53.0268 36.129H55.2438L55.2571 36.1157Z" fill="black"/>
<path d="M60.3549 34.8943C60.3549 35.0536 60.315 35.2129 60.2354 35.3324C60.1557 35.4651 60.0229 35.5182 59.8636 35.5182C59.6778 35.5182 59.545 35.4784 59.4521 35.3722C59.3592 35.2793 59.3061 35.1731 59.3061 35.0669C59.3061 35.0005 59.3061 34.9341 59.3194 34.8678C59.3326 34.8014 59.3459 34.7483 59.3459 34.6952C59.1866 34.6952 59.014 34.7615 58.8149 34.881C58.6158 35.0005 58.4432 35.1731 58.2971 35.412V38.1999C58.2971 38.3194 58.3237 38.4123 58.3635 38.4787C58.4034 38.5451 58.4697 38.5982 58.5759 38.638C58.6556 38.6645 58.7618 38.6911 58.8945 38.7176C59.0273 38.7309 59.1335 38.7442 59.2264 38.7575V39.0761H56.6908V38.7575C56.7705 38.7575 56.8501 38.7575 56.9165 38.7309C56.9962 38.7309 57.0625 38.7044 57.1289 38.6911C57.2218 38.6645 57.2882 38.6114 57.328 38.5318C57.3679 38.4521 57.3944 38.3592 57.3944 38.253V35.2926C57.3944 35.1996 57.3679 35.0934 57.328 35.0005C57.2749 34.9076 57.2218 34.8279 57.1289 34.7748C57.0625 34.735 56.9962 34.7084 56.9165 34.6952C56.8369 34.6819 56.7439 34.6686 56.6377 34.6553V34.3367L58.2308 34.2305L58.2971 34.2969V34.974H58.3237C58.5228 34.7084 58.7485 34.5093 59.0007 34.3766C59.253 34.2438 59.4787 34.1774 59.6778 34.1774C59.8769 34.1774 60.0495 34.2438 60.1823 34.3766C60.315 34.5093 60.3681 34.6819 60.3681 34.9076L60.3549 34.8943Z" fill="black"/>
<path d="M62.8905 39.0628H60.5673V38.7442C60.6469 38.7442 60.7133 38.7442 60.7929 38.7176C60.8726 38.7176 60.939 38.6911 61.0053 38.6778C61.0983 38.6513 61.1646 38.5982 61.2045 38.5185C61.2443 38.4389 61.2709 38.3459 61.2709 38.2397V35.2793C61.2709 35.1731 61.2443 35.0802 61.2045 35.0005C61.1646 34.9209 61.0983 34.8412 61.0053 34.7881C60.939 34.7483 60.8593 34.7217 60.7398 34.6952C60.6203 34.6686 60.5141 34.6553 60.4212 34.6421V34.3235L62.1205 34.2173L62.1868 34.2836V38.1999C62.1868 38.3194 62.2134 38.4123 62.2532 38.4787C62.2931 38.5583 62.3594 38.6114 62.4656 38.638C62.532 38.6645 62.6117 38.6911 62.678 38.7044C62.7444 38.7176 62.8241 38.7309 62.9037 38.7442V39.0628H62.8905ZM62.2798 32.3189C62.2798 32.5047 62.2134 32.664 62.0939 32.8101C61.9744 32.9428 61.8284 33.0225 61.6426 33.0225C61.4833 33.0225 61.3372 32.9561 61.2177 32.8233C61.0983 32.6906 61.0319 32.5445 61.0319 32.372C61.0319 32.1861 61.0983 32.0401 61.2177 31.9073C61.3372 31.7746 61.4833 31.7082 61.6426 31.7082C61.8284 31.7082 61.9744 31.7746 62.0939 31.894C62.2134 32.0268 62.2665 32.1596 62.2665 32.3321L62.2798 32.3189Z" fill="black"/>
<path d="M67.5501 37.9344C67.351 38.3194 67.0855 38.6247 66.7403 38.8504C66.4084 39.0761 66.0102 39.1956 65.5721 39.1956C65.1871 39.1956 64.8419 39.1292 64.5631 38.9965C64.2843 38.8637 64.0321 38.6778 63.8462 38.4389C63.6604 38.1999 63.5144 37.9344 63.4215 37.6158C63.3285 37.2972 63.2887 36.9786 63.2887 36.6334C63.2887 36.3148 63.3418 36.0095 63.4347 35.7174C63.5276 35.4254 63.6737 35.1466 63.8728 34.9076C64.0587 34.6819 64.2843 34.4961 64.5631 34.35C64.8419 34.204 65.1473 34.1376 65.4791 34.1376C65.811 34.1376 66.1296 34.1907 66.3819 34.3102C66.6341 34.4164 66.8333 34.5757 66.9926 34.7616C67.1386 34.9474 67.2581 35.1598 67.3244 35.3988C67.4041 35.651 67.4306 35.9166 67.4306 36.1953V36.5139H64.2578C64.2578 36.8326 64.2843 37.1113 64.3507 37.3769C64.4038 37.6291 64.5101 37.8548 64.6295 38.0539C64.7623 38.2398 64.9216 38.3858 65.1207 38.492C65.3198 38.5982 65.5721 38.6513 65.8509 38.6513C66.1296 38.6513 66.3951 38.5849 66.5943 38.4522C66.8067 38.3194 67.0058 38.0672 67.205 37.722L67.5501 37.9344ZM66.4748 36.1157C66.4748 35.9298 66.4615 35.744 66.4217 35.5316C66.3819 35.3192 66.3421 35.1466 66.2757 35.0138C66.196 34.8678 66.1031 34.7483 65.9703 34.6554C65.8376 34.5625 65.6783 34.5226 65.4659 34.5226C65.1207 34.5226 64.8419 34.6687 64.6162 34.9474C64.3906 35.2262 64.2711 35.6245 64.2445 36.129H66.4615L66.4748 36.1157Z" fill="black"/>
<path d="M73.2055 39.0628H70.8557V38.7442C70.9354 38.7442 71.015 38.7442 71.0947 38.7177C71.1876 38.7177 71.254 38.6911 71.3203 38.6778C71.4133 38.6513 71.4797 38.5982 71.5195 38.5185C71.5593 38.4389 71.5859 38.346 71.5859 38.2398V35.7705C71.5859 35.4386 71.5062 35.1731 71.3469 34.9873C71.1876 34.8014 70.9885 34.7085 70.7628 34.7085C70.5902 34.7085 70.4309 34.735 70.2849 34.7881C70.1388 34.8412 70.0194 34.9076 69.8999 34.9873C69.7937 35.0669 69.7008 35.1466 69.6477 35.2262C69.5946 35.3059 69.5415 35.3855 69.5149 35.4386V38.1999C69.5149 38.3061 69.5414 38.3991 69.5813 38.4787C69.6211 38.5584 69.7007 38.6115 69.7804 38.638C69.8468 38.6646 69.9264 38.6911 70.0061 38.7177C70.0857 38.7309 70.1654 38.7442 70.2583 38.7575V39.0761H67.9086V38.7575C67.9882 38.7575 68.0679 38.7575 68.1342 38.7309C68.2139 38.7309 68.2803 38.7044 68.3467 38.6911C68.4396 38.6646 68.506 38.6115 68.5458 38.5318C68.5856 38.4522 68.6122 38.3592 68.6122 38.253V35.2926C68.6122 35.1864 68.5856 35.0802 68.5458 34.9873C68.4927 34.8943 68.4396 34.8147 68.3467 34.7616C68.2803 34.7218 68.2139 34.6952 68.1342 34.6819C68.0546 34.6687 67.9617 34.6554 67.8555 34.6421V34.3235L69.4485 34.2173L69.5149 34.2837V34.9607H69.5414C69.6211 34.8811 69.714 34.7881 69.8335 34.6819C69.953 34.5757 70.0592 34.4828 70.1654 34.4164C70.2849 34.3368 70.4309 34.2704 70.5902 34.2173C70.7495 34.1642 70.9354 34.1376 71.1478 34.1376C71.6124 34.1376 71.9443 34.2837 72.17 34.5757C72.3957 34.8545 72.5019 35.2395 72.5019 35.7174V38.2132C72.5019 38.3327 72.5152 38.4123 72.555 38.492C72.5948 38.5584 72.6612 38.6115 72.7541 38.6513C72.8338 38.6778 72.9001 38.7044 72.9532 38.7177C73.0063 38.7309 73.086 38.7442 73.1922 38.7442V39.0628H73.2055Z" fill="black"/>
<path d="M75.8074 39.1956C75.1171 39.1956 74.5728 38.9699 74.1746 38.5053C73.7763 38.0406 73.5905 37.43 73.5905 36.6467C73.5905 36.3148 73.6435 35.9962 73.7498 35.7041C73.856 35.4121 74.002 35.1466 74.2144 34.9076C74.4003 34.6819 74.6525 34.4961 74.9312 34.35C75.2233 34.204 75.5287 34.1376 75.8738 34.1376C76.3385 34.1376 76.7234 34.2571 77.0155 34.4695C77.3076 34.6819 77.4536 35.0005 77.4536 35.3855C77.4536 35.5448 77.4138 35.6909 77.3341 35.8236C77.2545 35.9431 77.1217 36.0095 76.9491 36.0095C76.7633 36.0095 76.604 35.9564 76.4978 35.8634C76.3916 35.7705 76.3384 35.6643 76.3384 35.5448C76.3384 35.3988 76.365 35.2528 76.3916 35.0935C76.4314 34.9342 76.4579 34.828 76.4579 34.7616C76.4048 34.6687 76.3119 34.589 76.2057 34.5624C76.0862 34.5226 75.9668 34.5094 75.834 34.5094C75.6747 34.5094 75.5287 34.5359 75.3959 34.6023C75.2499 34.6687 75.1171 34.7881 74.9844 34.974C74.8649 35.1333 74.772 35.359 74.6923 35.6245C74.6126 35.9033 74.5861 36.2219 74.5861 36.6069C74.5861 37.2043 74.7189 37.7087 74.9844 38.0804C75.2499 38.4654 75.6083 38.6513 76.0331 38.6513C76.3517 38.6513 76.604 38.5716 76.8164 38.4256C77.0288 38.2796 77.2279 38.0406 77.4005 37.7353L77.7058 37.9344C77.4934 38.3194 77.2146 38.6247 76.8562 38.8372C76.511 39.0628 76.1393 39.169 75.7676 39.169L75.8074 39.1956Z" fill="black"/>
<path d="M82.1797 37.9344C81.9805 38.3194 81.715 38.6247 81.3698 38.8504C81.038 39.0761 80.6397 39.1956 80.2016 39.1956C79.8166 39.1956 79.4715 39.1292 79.1927 38.9965C78.9139 38.8637 78.6617 38.6778 78.4758 38.4389C78.2899 38.1999 78.1439 37.9344 78.051 37.6158C77.958 37.2972 77.9182 36.9786 77.9182 36.6334C77.9182 36.3148 77.9713 36.0095 78.0643 35.7174C78.1572 35.4254 78.3032 35.1466 78.5023 34.9076C78.6882 34.6819 78.9139 34.4961 79.1927 34.35C79.4715 34.204 79.7768 34.1376 80.1087 34.1376C80.4405 34.1376 80.7592 34.1907 81.0114 34.3102C81.2637 34.4164 81.4628 34.5757 81.6221 34.7616C81.7681 34.9474 81.8876 35.1598 81.954 35.3988C82.0336 35.651 82.0602 35.9166 82.0602 36.1953V36.5139H78.8873C78.8873 36.8326 78.9139 37.1113 78.9803 37.3769C79.0334 37.6291 79.1396 37.8548 79.259 38.0539C79.3918 38.2398 79.5511 38.3858 79.7502 38.492C79.9494 38.5982 80.2016 38.6513 80.4804 38.6513C80.7592 38.6513 81.0247 38.5849 81.2238 38.4522C81.4362 38.3194 81.6354 38.0672 81.8345 37.722L82.1797 37.9344ZM81.1043 36.1157C81.1043 35.9298 81.0911 35.744 81.0512 35.5316C81.0114 35.3192 80.9716 35.1466 80.9052 35.0138C80.8255 34.8678 80.7326 34.7483 80.5999 34.6554C80.4671 34.5625 80.3078 34.5226 80.0954 34.5226C79.7502 34.5226 79.4714 34.6687 79.2458 34.9474C79.0201 35.2262 78.9006 35.6245 78.874 36.129H81.0911L81.1043 36.1157Z" fill="black"/>
<path d="M90.4769 34.0447H90.145C90.1185 33.9252 90.0653 33.7924 89.9857 33.6331C89.906 33.4738 89.8264 33.3145 89.7335 33.1818C89.6405 33.0357 89.5343 32.903 89.4149 32.7968C89.2954 32.6773 89.1892 32.6242 89.083 32.6109C88.9768 32.5976 88.8573 32.5844 88.698 32.5844C88.5387 32.5844 88.4059 32.5844 88.2732 32.5844H87.9944V38.107C87.9944 38.2132 88.0209 38.3061 88.0608 38.399C88.1006 38.4919 88.1802 38.5583 88.2997 38.6114C88.3528 38.638 88.4856 38.6645 88.6714 38.7043C88.8573 38.7442 89.0033 38.7707 89.1095 38.7707V39.1159H85.8438V38.7707C85.9367 38.7707 86.0694 38.7442 86.2553 38.7309C86.4411 38.7044 86.5739 38.6911 86.6403 38.6512C86.7465 38.6114 86.8261 38.545 86.8792 38.4654C86.9323 38.3857 86.9589 38.2795 86.9589 38.1468V32.5844H86.6801C86.5739 32.5844 86.4544 32.5844 86.3084 32.5844C86.1624 32.5844 86.0163 32.5976 85.8836 32.6109C85.7774 32.6109 85.6712 32.6906 85.5517 32.7968C85.4322 32.9162 85.326 33.0357 85.2331 33.1818C85.1402 33.3278 85.0472 33.4871 84.9809 33.6464C84.9145 33.8057 84.8481 33.9385 84.8216 34.0579H84.4764V32.1861H90.4902V34.0579L90.4769 34.0447Z" fill="black"/>
<path d="M94.3798 34.8943C94.3798 35.0536 94.34 35.2129 94.2604 35.3324C94.1807 35.4651 94.048 35.5182 93.8886 35.5182C93.7028 35.5182 93.57 35.4784 93.4771 35.3722C93.3842 35.2793 93.3311 35.1731 93.3311 35.0669C93.3311 35.0005 93.3311 34.9341 93.3443 34.8678C93.3576 34.8014 93.3709 34.7483 93.3709 34.6952C93.2116 34.6952 93.039 34.7615 92.8399 34.881C92.6408 35.0005 92.4682 35.1731 92.3222 35.412V38.1999C92.3222 38.3194 92.3487 38.4123 92.3885 38.4787C92.4283 38.5451 92.4947 38.5982 92.6009 38.638C92.6806 38.6645 92.7868 38.6911 92.9196 38.7176C93.0523 38.7309 93.1585 38.7442 93.2515 38.7575V39.0761H90.7158V38.7575C90.7955 38.7575 90.8751 38.7575 90.9415 38.7309C91.0211 38.7309 91.0875 38.7044 91.1539 38.6911C91.2468 38.6645 91.3132 38.6114 91.353 38.5318C91.3929 38.4521 91.4194 38.3592 91.4194 38.253V35.2926C91.4194 35.1996 91.3929 35.0934 91.353 35.0005C91.2999 34.9076 91.2468 34.8279 91.1539 34.7748C91.0875 34.735 91.0211 34.7084 90.9415 34.6952C90.8618 34.6819 90.7689 34.6686 90.6627 34.6553V34.3367L92.2558 34.2305L92.3222 34.2969V34.974H92.3487C92.5478 34.7084 92.7735 34.5093 93.0258 34.3766C93.278 34.2438 93.5037 34.1774 93.7028 34.1774C93.9019 34.1774 94.0745 34.2438 94.2073 34.3766C94.34 34.5093 94.3931 34.6819 94.3931 34.9076L94.3798 34.8943Z" fill="black"/>
<path d="M99.1325 38.9832C98.9732 39.0363 98.8404 39.0894 98.7342 39.1159C98.6148 39.1558 98.482 39.169 98.3492 39.169C98.097 39.169 97.8979 39.1027 97.7386 38.9832C97.5925 38.8637 97.4863 38.6911 97.4465 38.4654H97.4199C97.2075 38.6911 96.9819 38.877 96.7429 38.9965C96.504 39.1159 96.2119 39.1823 95.8667 39.1823C95.5083 39.1823 95.2162 39.0761 94.9773 38.8504C94.7516 38.6247 94.6321 38.346 94.6321 37.9875C94.6321 37.8017 94.6586 37.6424 94.7117 37.4963C94.7648 37.3503 94.8445 37.2175 94.9507 37.0981C95.0304 37.0051 95.1366 36.9122 95.2693 36.8326C95.4021 36.7529 95.5215 36.6998 95.641 36.6467C95.7871 36.5936 96.0791 36.4874 96.5305 36.3414C96.9819 36.1953 97.2739 36.0759 97.4332 35.9962V35.5183C97.4332 35.5183 97.4332 35.3988 97.4067 35.2793C97.3801 35.1598 97.3536 35.0536 97.2872 34.9342C97.2208 34.8147 97.1279 34.7085 97.0084 34.6156C96.8889 34.5226 96.7163 34.4828 96.5039 34.4828C96.3579 34.4828 96.2119 34.5093 96.0924 34.5624C95.9596 34.6156 95.88 34.6687 95.8269 34.7218C95.8269 34.7881 95.8402 34.8811 95.88 35.0138C95.9198 35.1466 95.9331 35.2528 95.9331 35.359C95.9331 35.4652 95.88 35.5714 95.7738 35.6643C95.6676 35.7572 95.5348 35.8103 95.349 35.8103C95.1897 35.8103 95.0702 35.7572 94.9905 35.6378C94.9109 35.5183 94.8711 35.3988 94.8711 35.2528C94.8711 35.1067 94.9242 34.9607 95.0304 34.828C95.1366 34.6952 95.2693 34.5757 95.4419 34.4562C95.5879 34.3633 95.7605 34.2837 95.9729 34.2306C96.1853 34.1642 96.3844 34.1376 96.5836 34.1376C96.8624 34.1376 97.0881 34.1642 97.3005 34.1907C97.4996 34.2306 97.6855 34.3102 97.858 34.4297C98.0174 34.5492 98.1501 34.7085 98.2298 34.9209C98.3094 35.1333 98.3625 35.3988 98.3625 35.7174C98.3625 36.1821 98.3625 36.5936 98.3492 36.952C98.3492 37.3105 98.3359 37.6955 98.3359 38.1203C98.3359 38.253 98.3625 38.346 98.4023 38.4256C98.4422 38.5053 98.5085 38.5584 98.6015 38.6115C98.6546 38.638 98.7342 38.6513 98.8271 38.6646C98.9333 38.6646 99.0396 38.6646 99.1458 38.6646V38.9699L99.1325 38.9832ZM97.4332 36.4077C97.1544 36.4874 96.9155 36.567 96.703 36.6467C96.4906 36.7264 96.3048 36.8193 96.119 36.9388C95.9597 37.045 95.8269 37.1777 95.734 37.337C95.641 37.4831 95.5879 37.6689 95.5879 37.8813C95.5879 38.1468 95.6543 38.346 95.8003 38.4787C95.9464 38.6115 96.1189 38.6646 96.3313 38.6646C96.557 38.6646 96.7695 38.6115 96.942 38.492C97.1146 38.3725 97.2606 38.253 97.3801 38.0937L97.4067 36.4077H97.4332Z" fill="black"/>
<path d="M104.708 39.0628H102.358V38.7442C102.438 38.7442 102.518 38.7442 102.597 38.7177C102.69 38.7177 102.757 38.6911 102.823 38.6778C102.916 38.6513 102.982 38.5982 103.022 38.5185C103.062 38.4389 103.089 38.346 103.089 38.2398V35.7705C103.089 35.4386 103.009 35.1731 102.85 34.9873C102.69 34.8014 102.491 34.7085 102.265 34.7085C102.093 34.7085 101.934 34.735 101.788 34.7881C101.641 34.8412 101.522 34.9076 101.403 34.9873C101.296 35.0669 101.203 35.1466 101.15 35.2262C101.097 35.3059 101.044 35.3855 101.018 35.4386V38.1999C101.018 38.3061 101.044 38.3991 101.084 38.4787C101.124 38.5584 101.203 38.6115 101.283 38.638C101.349 38.6646 101.429 38.6911 101.509 38.7177C101.588 38.7309 101.668 38.7442 101.761 38.7575V39.0761H99.4112V38.7575C99.4909 38.7575 99.5705 38.7575 99.6369 38.7309C99.7166 38.7309 99.7829 38.7044 99.8493 38.6911C99.9422 38.6646 100.009 38.6115 100.048 38.5318C100.088 38.4522 100.115 38.3592 100.115 38.253V35.2926C100.115 35.1864 100.088 35.0802 100.048 34.9873C99.9953 34.8943 99.9422 34.8147 99.8493 34.7616C99.7829 34.7218 99.7166 34.6952 99.6369 34.6819C99.5573 34.6687 99.4643 34.6554 99.3581 34.6421V34.3235L100.951 34.2173L101.018 34.2837V34.9607H101.044C101.124 34.8811 101.217 34.7881 101.336 34.6819C101.456 34.5757 101.562 34.4828 101.668 34.4164C101.788 34.3368 101.934 34.2704 102.093 34.2173C102.252 34.1642 102.438 34.1376 102.65 34.1376C103.115 34.1376 103.447 34.2837 103.673 34.5757C103.898 34.8545 104.005 35.2395 104.005 35.7174V38.2132C104.005 38.3327 104.018 38.4123 104.058 38.492C104.097 38.5584 104.164 38.6115 104.257 38.6513C104.336 38.6778 104.403 38.7044 104.456 38.7177C104.509 38.7309 104.589 38.7442 104.695 38.7442V39.0628H104.708Z" fill="black"/>
<path d="M110.364 41.2266H107.762V40.908C107.868 40.908 107.961 40.908 108.054 40.8815C108.147 40.8549 108.239 40.8549 108.319 40.8284C108.425 40.8018 108.492 40.7354 108.531 40.6558C108.571 40.5761 108.585 40.4832 108.585 40.3637V38.5848H108.558C108.558 38.5848 108.439 38.7043 108.332 38.7707C108.226 38.8371 108.133 38.9034 108.04 38.9565C107.908 39.0229 107.788 39.076 107.669 39.1158C107.549 39.1557 107.403 39.1689 107.217 39.1689C106.925 39.1689 106.646 39.1026 106.394 38.9831C106.142 38.8636 105.916 38.691 105.717 38.4653C105.531 38.2397 105.372 37.9742 105.266 37.6555C105.16 37.3369 105.093 36.9785 105.093 36.5935C105.093 36.2218 105.16 35.8899 105.292 35.5978C105.425 35.2925 105.598 35.0403 105.81 34.8146C106.009 34.6022 106.261 34.4296 106.54 34.3101C106.832 34.1906 107.111 34.1243 107.39 34.1243C107.602 34.1243 107.788 34.1508 107.947 34.1906C108.107 34.2305 108.253 34.2836 108.372 34.3367C108.478 34.3765 108.571 34.4296 108.678 34.496C108.784 34.5624 108.85 34.6022 108.89 34.6287L109.301 33.9915L109.58 34.0313C109.58 34.2703 109.554 34.5624 109.527 34.9208C109.501 35.266 109.501 35.5846 109.501 35.8368V40.2708C109.501 40.3903 109.527 40.4832 109.567 40.5629C109.607 40.6425 109.673 40.7089 109.766 40.7487C109.846 40.7753 109.939 40.8151 110.058 40.8284C110.178 40.8417 110.271 40.8682 110.35 40.8682V41.1868L110.364 41.2266ZM108.585 38.1733V35.3058C108.558 35.2261 108.518 35.1332 108.452 35.0403C108.385 34.9341 108.319 34.8544 108.226 34.7748C108.133 34.6951 108.027 34.6287 107.894 34.5756C107.762 34.5225 107.616 34.496 107.443 34.496C107.058 34.496 106.753 34.6951 106.487 35.0801C106.235 35.4651 106.102 36.0094 106.102 36.6997C106.102 36.9785 106.129 37.2175 106.182 37.4431C106.235 37.6688 106.315 37.868 106.447 38.0671C106.567 38.2529 106.713 38.399 106.885 38.5052C107.058 38.6114 107.284 38.6645 107.562 38.6645C107.788 38.6645 108 38.6114 108.16 38.5184C108.319 38.4255 108.465 38.306 108.585 38.1733Z" fill="black"/>
<path d="M115.621 38.9832L114.054 39.0894L113.974 39.023V38.4124H113.948C113.868 38.492 113.789 38.5849 113.682 38.6779C113.576 38.7708 113.47 38.8505 113.35 38.9301C113.204 39.023 113.058 39.0894 112.926 39.1292C112.793 39.1691 112.594 39.1956 112.342 39.1956C111.917 39.1956 111.598 39.0629 111.372 38.7841C111.147 38.5053 111.041 38.107 111.041 37.576V35.2794C111.041 35.1599 111.014 35.0669 110.974 34.9873C110.934 34.9076 110.868 34.8413 110.775 34.7882C110.722 34.7483 110.642 34.7218 110.549 34.7085C110.456 34.6952 110.363 34.682 110.271 34.6687V34.3501L111.877 34.2306L111.957 34.297V37.6291C111.957 37.9743 112.036 38.2398 112.195 38.4124C112.355 38.5849 112.541 38.6779 112.753 38.6779C112.926 38.6779 113.085 38.6513 113.231 38.5982C113.377 38.5451 113.483 38.4787 113.576 38.3991C113.669 38.3327 113.735 38.2663 113.802 38.1867C113.868 38.107 113.921 38.0407 113.961 37.9743V35.2528C113.961 35.1466 113.935 35.0537 113.895 34.974C113.855 34.8944 113.789 34.8147 113.709 34.7616C113.656 34.7218 113.563 34.6952 113.443 34.6952C113.324 34.6952 113.204 34.682 113.058 34.6687V34.3501L114.811 34.2306L114.89 34.297V38.107C114.89 38.2132 114.917 38.3062 114.957 38.3858C114.997 38.4655 115.063 38.5318 115.143 38.5849C115.196 38.6248 115.275 38.638 115.355 38.6513C115.435 38.6513 115.528 38.6646 115.621 38.6779V38.9965V38.9832Z" fill="black"/>
<path d="M118.329 39.0628H116.006V38.7442C116.085 38.7442 116.152 38.7442 116.231 38.7176C116.311 38.7176 116.377 38.6911 116.444 38.6778C116.537 38.6513 116.603 38.5982 116.643 38.5185C116.683 38.4389 116.709 38.3459 116.709 38.2397V35.2793C116.709 35.1731 116.683 35.0802 116.643 35.0005C116.603 34.9209 116.537 34.8412 116.444 34.7881C116.377 34.7483 116.298 34.7217 116.178 34.6952C116.059 34.6686 115.953 34.6553 115.86 34.6421V34.3235L117.559 34.2173L117.625 34.2836V38.1999C117.625 38.3194 117.652 38.4123 117.692 38.4787C117.731 38.5583 117.798 38.6114 117.904 38.638C117.97 38.6645 118.05 38.6911 118.116 38.7044C118.183 38.7176 118.262 38.7309 118.342 38.7442V39.0628H118.329ZM117.718 32.3189C117.718 32.5047 117.652 32.664 117.532 32.8101C117.413 32.9428 117.267 33.0225 117.081 33.0225C116.922 33.0225 116.776 32.9561 116.656 32.8233C116.537 32.6906 116.47 32.5445 116.47 32.372C116.47 32.1861 116.537 32.0401 116.656 31.9073C116.776 31.7746 116.922 31.7082 117.081 31.7082C117.267 31.7082 117.413 31.7746 117.532 31.894C117.652 32.0268 117.705 32.1596 117.705 32.3321L117.718 32.3189Z" fill="black"/>
<path d="M120.971 39.0628H118.634V38.7442C118.714 38.7442 118.793 38.7309 118.873 38.7177C118.953 38.7044 119.032 38.6911 119.085 38.6778C119.178 38.6513 119.245 38.5982 119.285 38.5185C119.324 38.4389 119.351 38.346 119.351 38.2398V32.6773C119.351 32.5579 119.324 32.4517 119.271 32.3454C119.218 32.2392 119.152 32.1596 119.072 32.1065C119.019 32.0667 118.913 32.0268 118.754 32.0003C118.594 31.9737 118.475 31.9472 118.382 31.9472V31.6419L120.187 31.5356L120.254 31.6153V38.1999C120.254 38.3194 120.28 38.4123 120.32 38.4787C120.36 38.5584 120.426 38.6115 120.519 38.6513C120.586 38.6778 120.665 38.7044 120.732 38.731C120.798 38.7442 120.878 38.7575 120.971 38.7708V39.0894V39.0628Z" fill="black"/>
<path d="M123.626 39.0628H121.289V38.7442C121.369 38.7442 121.449 38.7309 121.528 38.7177C121.608 38.7044 121.687 38.6911 121.741 38.6778C121.834 38.6513 121.9 38.5982 121.94 38.5185C121.98 38.4389 122.006 38.346 122.006 38.2398V32.6773C122.006 32.5579 121.98 32.4517 121.926 32.3454C121.873 32.2392 121.807 32.1596 121.727 32.1065C121.674 32.0667 121.568 32.0268 121.409 32.0003C121.249 31.9737 121.13 31.9472 121.037 31.9472V31.6419L122.842 31.5356L122.909 31.6153V38.1999C122.909 38.3194 122.935 38.4123 122.975 38.4787C123.015 38.5584 123.081 38.6115 123.174 38.6513C123.241 38.6778 123.32 38.7044 123.387 38.731C123.453 38.7442 123.533 38.7575 123.626 38.7708V39.0894V39.0628Z" fill="black"/>
<path d="M126.36 39.0628H124.037V38.7442C124.117 38.7442 124.183 38.7442 124.263 38.7176C124.343 38.7176 124.409 38.6911 124.475 38.6778C124.568 38.6513 124.635 38.5982 124.674 38.5185C124.714 38.4389 124.741 38.3459 124.741 38.2397V35.2793C124.741 35.1731 124.714 35.0802 124.674 35.0005C124.635 34.9209 124.568 34.8412 124.475 34.7881C124.409 34.7483 124.329 34.7217 124.21 34.6952C124.09 34.6686 123.984 34.6553 123.891 34.6421V34.3235L125.59 34.2173L125.657 34.2836V38.1999C125.657 38.3194 125.683 38.4123 125.723 38.4787C125.763 38.5583 125.829 38.6114 125.936 38.638C126.002 38.6645 126.082 38.6911 126.148 38.7044C126.214 38.7176 126.294 38.7309 126.374 38.7442V39.0628H126.36ZM125.75 32.3189C125.75 32.5047 125.683 32.664 125.564 32.8101C125.444 32.9428 125.298 33.0225 125.113 33.0225C124.953 33.0225 124.807 32.9561 124.688 32.8233C124.568 32.6906 124.502 32.5445 124.502 32.372C124.502 32.1861 124.568 32.0401 124.688 31.9073C124.807 31.7746 124.953 31.7082 125.113 31.7082C125.298 31.7082 125.444 31.7746 125.564 31.894C125.683 32.0268 125.736 32.1596 125.736 32.3321L125.75 32.3189Z" fill="black"/>
<path d="M129.706 38.8637C129.493 38.9566 129.294 39.023 129.108 39.0894C128.923 39.1558 128.697 39.1823 128.418 39.1823C128.02 39.1823 127.728 39.0761 127.569 38.877C127.409 38.6778 127.316 38.3858 127.316 38.0141V34.7616H126.453V34.2969H127.343V32.7968H128.232V34.2969H129.613V34.7616H128.246V37.4432C128.246 37.6424 128.246 37.8149 128.272 37.9477C128.285 38.0805 128.325 38.1999 128.378 38.3061C128.431 38.3991 128.511 38.4654 128.617 38.5185C128.723 38.5716 128.856 38.5982 129.029 38.5982C129.108 38.5982 129.228 38.5982 129.387 38.5716C129.547 38.5584 129.653 38.5318 129.719 38.5185V38.877L129.706 38.8637Z" fill="black"/>
<path d="M129.626 40.6293C129.626 40.47 129.666 40.3373 129.759 40.2311C129.852 40.1249 129.958 40.085 130.091 40.085C130.197 40.085 130.29 40.0983 130.356 40.1381C130.436 40.178 130.502 40.2311 130.555 40.2842C130.609 40.3373 130.662 40.4037 130.715 40.4833C130.768 40.563 130.821 40.6426 130.848 40.6957C131.007 40.6161 131.206 40.3771 131.432 40.0054C131.657 39.6337 131.817 39.3151 131.923 39.0363C131.618 38.2663 131.339 37.576 131.087 36.9786C130.834 36.3679 130.569 35.744 130.303 35.0935C130.237 34.9474 130.144 34.828 129.998 34.7483C129.852 34.6687 129.706 34.6155 129.56 34.589V34.2704H131.75V34.6155C131.657 34.6155 131.538 34.6421 131.405 34.6819C131.272 34.7217 131.206 34.7616 131.206 34.8147C131.206 34.8412 131.206 34.8678 131.233 34.9076C131.246 34.9474 131.259 35.0005 131.286 35.0404C131.405 35.359 131.591 35.8236 131.843 36.4343C132.095 37.045 132.295 37.5229 132.427 37.8813C132.573 37.5361 132.719 37.1777 132.879 36.806C133.038 36.4343 133.211 35.9962 133.41 35.4917C133.436 35.4253 133.463 35.3457 133.503 35.2395C133.542 35.1333 133.569 35.0404 133.569 34.9607C133.569 34.8811 133.489 34.8014 133.343 34.7218C133.197 34.6554 133.051 34.6023 132.919 34.589V34.2837H134.697V34.589C134.605 34.6023 134.472 34.6554 134.312 34.7616C134.153 34.8678 134.034 34.9873 133.954 35.1731C133.569 36.0758 133.224 36.8857 132.919 37.6158C132.613 38.3592 132.388 38.8902 132.241 39.2354C132.042 39.6868 131.856 40.0452 131.697 40.2974C131.538 40.5497 131.379 40.7488 131.233 40.8948C131.087 41.0276 130.954 41.1205 130.821 41.1736C130.702 41.2135 130.569 41.24 130.449 41.24C130.197 41.24 129.998 41.1736 129.852 41.0542C129.706 40.9347 129.64 40.8019 129.64 40.6426L129.626 40.6293Z" fill="black"/>
</svg>
