<svg width="157" height="76" viewBox="0 0 157 76" fill="none" xmlns="http://www.w3.org/2000/svg">
<g clip-path="url(#clip0_60_1080)">
<path d="M34.53 16.0799L14.1 33.7199C18.57 33.1999 22.69 31.4199 27.04 30.3699C32.82 28.9699 38.23 28.0999 43.92 26.1299C44.32 25.9899 46.03 25.7999 44.94 26.6799C43.85 27.5599 37.78 29.5199 36.09 29.9999C27.82 32.3199 18.15 33.4799 10.17 36.6699C7.69003 37.6599 3.73003 40.7299 1.23003 41.0999C-0.179971 41.3099 -0.509971 40.3999 0.850029 39.5199C3.33003 37.9099 6.97003 36.7499 9.74003 35.0599C11.76 33.8199 14.56 31.8299 16.42 30.3599C20.45 27.1599 23.58 23.0299 27.84 20.1999C27.53 19.6899 26.58 20.3299 26.19 20.5199C24.04 21.5799 20.04 23.7299 18.05 24.9399C15.85 26.2699 14.53 29.0799 11.34 28.2399C10.83 25.7199 13.12 26.2299 14.1 25.6299C14.78 25.2199 15.18 24.3899 15.92 23.9799C21.27 21.0499 27.23 18.7899 32.6 15.8899L34.52 16.0899L34.53 16.0799Z" fill="black"/>
<path d="M100.14 29.4C99.1501 30.19 90.9601 23.64 89.0001 23.88C86.9301 26.4 84.6901 29.92 81.2901 30.58C80.8301 29.87 82.6101 26.9 82.9201 26.74C83.1001 26.64 84.0301 27.41 84.4101 26.45C83.8901 25.29 83.9701 24.45 85.2101 23.92L85.4101 25.1L89.2101 20.46L89.9301 20.8C89.6801 19 96.7901 11.62 95.8301 10.6L85.6401 17.09C83.7001 19.18 81.2501 20.73 79.0701 22.49C78.6501 22.83 78.4101 23.83 77.7601 24.13C75.1301 25.34 76.6801 22.24 78.1401 20.98C81.5301 18.06 86.4501 14.28 90.2001 11.85C92.5401 10.33 95.3101 9.22999 97.5401 7.48999L98.4601 8.43999C97.3701 13.95 93.3301 17.63 90.3301 22.17L98.3801 26.28C98.9701 26.9 101.19 28.58 100.14 29.42V29.4Z" fill="black"/>
<path d="M53.0001 21.56C53.7901 22.16 54.2701 20.14 54.5701 19.8C57.0801 16.92 66.9101 10.31 66.7501 18.03C65.6401 18.35 65.4201 16.6 64.9001 16.46C61.0801 15.4 54.8401 21.39 52.8301 24.33C51.2801 26.6 51.7901 29.26 49.8701 31.18L48.8601 30.98C48.5901 30.55 48.5301 28.62 48.6701 28.11C48.7701 27.74 49.5001 27.74 49.7701 27.18C49.9301 26.85 51.3301 22.52 51.3901 22.12C52.1401 16.96 50.5501 10.73 52.2101 5.49C51.1801 5.3 51.5201 5.69 51.2401 6.27C50.5501 7.74 50.0701 11.41 49.2701 12.17C47.5401 13.82 49.2701 9.44 49.3501 9.11C49.9801 6.49 50.5401 3.82 51.0301 1.17C52.4901 -0.189996 53.3001 4.81 53.3801 5.69C53.5901 8.03 52.3601 21.08 53.0001 21.56Z" fill="black"/>
<path d="M132.3 3.97994C132.46 6.29994 136.86 9.96994 136.7 11.9399C136.65 12.5299 134.52 14.6799 133.96 15.1199C133.31 15.6399 132.43 15.4399 132.36 16.0699C134.28 16.0899 142.21 14.4099 142.18 17.4399C141.47 18.8399 140.89 20.3199 139.4 20.9999C139.14 22.5299 143.12 23.5499 141.82 25.5899C141.67 25.8199 139.27 27.8299 139.04 27.2499L141 25.0999C138.42 25.2399 137.68 28.3799 136.31 29.6399C135.64 30.2599 133.72 31.0799 132.94 31.7599L133.12 30.3699C134.83 29.0099 136.72 27.7399 138.33 26.2699C138.82 25.8199 139.91 25.0199 139.82 24.3199L136.07 24.2899C135.21 24.8399 135.46 25.6699 134.95 26.2899C134.39 26.9599 133.35 27.3599 132.99 27.8499C132.8 28.1099 132.15 31.2399 131.96 31.3799C130.46 31.5899 130.84 29.3699 131.23 28.5199C132.19 26.4099 134.58 25.0699 135.49 22.9399L140.6 18.2499C138.4 16.0099 135.64 17.2099 132.94 17.6599C132.21 17.7799 131.36 17.5499 130.61 17.6899C129.3 17.9199 128.33 19.1399 126.86 18.8399C126.84 18.3099 126.73 18.0799 127.12 17.6499C128 16.6799 131.79 15.1199 133.23 13.7499C134.15 12.8799 135.02 11.9599 134.34 10.7899C132.91 8.32994 129.6 7.48994 130.39 3.93994L132.3 3.99994V3.97994Z" fill="black"/>
<path d="M55.22 46.3999C55.98 47.0499 57.3 48.9699 57.34 49.9899C57.53 53.9099 50.08 61.2199 47.18 63.8999C45.76 65.2199 37.6 72.3499 36.31 72.1399C36.04 72.0999 35.47 71.4599 36.1 71.1499C38.32 69.7299 40.37 68.1299 42.34 66.3799C45.43 63.6499 50.73 58.6799 52.92 55.3899C53.88 53.9499 55.74 50.9199 55.27 49.2799C54.13 45.3099 47.44 47.0699 44.65 47.9299C42.76 48.5099 41.13 50.0999 39.04 49.7799C36.52 49.4199 43.66 46.3699 44.12 46.2299C47.19 45.2599 52.59 44.1499 55.2 46.3899L55.22 46.3999Z" fill="black"/>
<path d="M147.68 25.8699L150.24 23.5299C152.01 22.2099 153.63 20.6599 156.06 21.2199C157.93 22.7899 155.51 24.8899 154.54 26.2599C153.5 25.7199 156.01 22.1599 154.54 22.7399C153.46 23.1599 150.67 25.6799 149.81 26.6499C149.1 27.4599 146.75 31.4099 146.49 31.5699C145.92 31.9299 145.04 31.6999 144.9 31.1499C144.65 30.1699 145.9 29.7399 146.07 28.7999C146.23 27.9499 145.96 26.9499 146.07 26.0599C146.4 23.5799 148.64 12.3099 147.85 10.9299L146.86 10.9699C146.71 10.7199 147.49 6.0399 147.66 5.2999C147.79 4.7299 147.89 4.2499 148.62 4.2799C150.54 4.2799 150.11 9.2999 150.01 10.7799C149.81 13.7299 149.26 18.3999 148.78 21.3199C148.53 22.8599 147.49 24.2199 147.64 25.8599L147.68 25.8699Z" fill="black"/>
<path d="M138.79 70.3301C136.89 72.2401 134.99 74.4101 132.36 75.2801C132.01 73.8201 133.69 73.7001 134.72 72.7301C137.61 70.0201 142.21 64.4301 144.32 61.1401C144.75 60.4601 147.51 55.4101 147.6 55.0001C148.13 52.6001 147.3 50.3101 144.86 49.6701C141.98 48.9101 136.72 49.1401 133.8 49.8001C133.47 49.8701 133.47 50.5401 133.34 50.5801C132.57 50.8701 131.98 50.3801 132.36 49.5901C133.15 47.9501 141.56 47.2801 143.45 47.5301C147.88 48.1301 150.11 50.9001 149.21 55.4001C148.46 59.1401 141.62 67.4801 138.79 70.3201V70.3301Z" fill="black"/>
<path d="M108.77 0.790039L109.61 11.57C108.36 19.39 109.27 27.14 108.95 34.95C108.94 35.3 108.63 38.18 108.01 37.64L107.81 36.95L107.22 37.05C108.24 34.06 107.26 30.97 107.21 28.06C107.07 21.03 107.95 14.04 107.23 7.07004L106.06 7.46004L107.59 1.03004L108.79 0.800039L108.77 0.790039Z" fill="black"/>
<path d="M98.57 40.78C98.7 41.74 97.73 42.56 97.59 43.33C97.24 45.18 97.29 48.31 96.98 50.37C96.75 51.87 95.35 53.74 96.58 55.52C97.91 56.16 99.13 55.07 100.37 54.94C105.75 54.34 110.9 52.87 116.44 53.34C117.09 53.4 118.05 53.58 118.6 53.92C116.83 54.92 114.41 54.28 112.52 54.52C107.93 55.1 103.6 56.96 99.13 57.63C94.3 58.35 94.25 54.01 95.05 50.42C95.24 49.56 95.94 48.92 96.11 47.95C96.49 45.91 95.58 40.83 98.55 40.79L98.57 40.78Z" fill="black"/>
<path d="M37.6001 0.0900098L37.8701 0.79001L39.6401 0.0100098C39.7501 0.56001 39.6101 0.65001 39.2201 0.96001C37.5201 2.28001 33.0101 2.68001 31.4701 4.58001C26.2101 8.31001 16.6801 12.08 12.0101 16.05C11.1201 16.81 11.7701 18.34 8.6001 17.65C8.4401 17.21 9.0301 16.26 8.9501 16.13C8.8301 15.96 7.7901 15.91 7.8101 15.31C8.9201 15.04 10.2701 15.06 11.3201 14.69C15.5201 13.21 21.2201 8.10001 25.2601 5.88001C27.7001 4.54001 30.8001 3.48001 33.3601 2.18001C34.7301 1.48001 35.8201 -0.00999023 37.5901 0.10001L37.6001 0.0900098Z" fill="black"/>
</g>
<defs>
<clipPath id="clip0_60_1080">
<rect width="156.76" height="75.28" fill="white"/>
</clipPath>
</defs>
</svg>
