<svg width="176" height="40" viewBox="0 0 176 40" fill="none" xmlns="http://www.w3.org/2000/svg">
<path d="M48.955 38.9827C48.5184 39.4192 47.9946 39.6342 47.3767 39.6342C46.7588 39.6342 46.2282 39.4125 45.7916 38.9827C45.3551 38.5461 45.1401 38.0223 45.1401 37.3976C45.1401 36.773 45.3551 36.2559 45.7916 35.8193C46.2282 35.3828 46.752 35.1678 47.3767 35.1678C48.0013 35.1678 48.5184 35.3895 48.955 35.8193L48.3237 36.4507C48.0617 36.1887 47.7461 36.0544 47.3767 36.0544C47.0073 36.0544 46.6916 36.182 46.4297 36.4507C46.1677 36.7126 46.0334 37.0283 46.0334 37.3976C46.0334 37.767 46.161 38.0827 46.4297 38.3446C46.6916 38.6066 47.0073 38.7409 47.3767 38.7409C47.7461 38.7409 48.0617 38.6133 48.3237 38.3446L48.955 38.976V38.9827Z" fill="#102241"/>
<path d="M50.3721 35.2954H51.2654V36.9544H53.0519V35.2954H53.9452V39.5066H53.0519V37.8476H51.2654V39.5066H50.3721V35.2954Z" fill="#102241"/>
<path d="M58.5391 35.2954V36.1887H56.625V36.9544H58.1563V37.8476H56.625V38.6133H58.5391V39.5066H55.7317V35.2954H58.5391Z" fill="#102241"/>
<path d="M60.9637 38.6133V39.5066H60.0704V35.2954H61.6017C62.0584 35.2954 62.4547 35.4566 62.7771 35.779C63.0995 36.1014 63.2607 36.4909 63.2607 36.9544C63.2607 37.4178 63.0995 37.8073 62.7771 38.1297C62.7099 38.1969 62.6428 38.2573 62.5689 38.3111L63.2607 39.5133H62.2331L61.7159 38.6133C61.6823 38.6133 61.642 38.6133 61.6017 38.6133H60.9637ZM60.9637 36.1887V37.72H61.6017C61.8099 37.72 61.9913 37.6461 62.1458 37.4984C62.2935 37.3506 62.3674 37.1693 62.3674 36.9544C62.3674 36.7394 62.2935 36.5648 62.1458 36.4104C61.998 36.2626 61.8167 36.1887 61.6017 36.1887H60.9637Z" fill="#102241"/>
<path d="M65.8128 35.2954V39.5066H64.9196V35.2954H65.8128Z" fill="#102241"/>
<path d="M68.2038 38.217C68.4792 38.5663 68.7882 38.7409 69.1374 38.7409C69.3389 38.7409 69.5001 38.7006 69.6344 38.6267C69.762 38.5528 69.8292 38.4387 69.8292 38.2842C69.8158 38.1499 69.7419 38.0491 69.6008 37.9752L68.6135 37.7335C68.3113 37.6394 68.0695 37.485 67.8815 37.27C67.7001 37.0551 67.6061 36.82 67.6061 36.5715C67.6061 36.1484 67.7539 35.8059 68.0494 35.5507C68.3449 35.2955 68.6941 35.1678 69.0904 35.1678C69.6949 35.1678 70.1986 35.3895 70.5948 35.8328L69.9031 36.3902C69.7016 36.1753 69.4464 36.0611 69.1441 36.0611C68.9426 36.0611 68.7814 36.1014 68.674 36.1887C68.5665 36.276 68.5061 36.3768 68.5061 36.4977C68.5061 36.6656 68.6202 36.7999 68.8553 36.9006L69.8426 37.1357C70.4336 37.3574 70.7292 37.7402 70.7292 38.2842C70.7292 38.6469 70.5948 38.9625 70.3195 39.2312C70.0441 39.4998 69.6546 39.6342 69.1441 39.6342C68.4523 39.6342 67.8949 39.3252 67.4785 38.714L68.2106 38.217H68.2038Z" fill="#102241"/>
<path d="M72.3276 35.2954H73.2209V36.9544H75.0074V35.2954H75.9007V39.5066H75.0074V37.8476H73.2209V39.5066H72.3276V35.2954Z" fill="#102241"/>
<path d="M84.0543 35.8193C84.4908 36.2559 84.7057 36.7797 84.7057 37.3976C84.7057 38.0155 84.4841 38.5461 84.0543 38.9827C83.6177 39.4192 83.0938 39.6342 82.4759 39.6342C81.858 39.6342 81.3274 39.4125 80.8909 38.9827C80.4543 38.5461 80.2394 38.0223 80.2394 37.3976C80.2394 36.773 80.461 36.2559 80.8909 35.8193C81.3274 35.3828 81.8513 35.1678 82.4759 35.1678C83.1005 35.1678 83.6177 35.3895 84.0543 35.8193ZM82.4759 36.0611C82.1065 36.0611 81.7909 36.1887 81.5222 36.4574C81.2603 36.7193 81.126 37.035 81.126 37.4044C81.126 37.7738 81.2603 38.0894 81.5222 38.3514C81.7842 38.6133 82.0998 38.7476 82.4759 38.7476C82.852 38.7476 83.161 38.62 83.4229 38.3514C83.6849 38.0894 83.8192 37.7738 83.8192 37.4044C83.8192 37.035 83.6849 36.7193 83.4229 36.4574C83.161 36.1954 82.8453 36.0611 82.4759 36.0611Z" fill="#102241"/>
<path d="M89.0445 35.2954V36.1887H87.1303V36.9544H88.6616V37.8476H87.1303V39.5066H86.237V35.2954H89.0445Z" fill="#102241"/>
<path d="M96.8152 38.9827C96.3786 39.4192 95.8548 39.6342 95.2369 39.6342C94.619 39.6342 94.0884 39.4125 93.6518 38.9827C93.2153 38.5461 93.0004 38.0223 93.0004 37.3976C93.0004 36.773 93.2153 36.2559 93.6518 35.8193C94.0884 35.3828 94.6123 35.1678 95.2369 35.1678C95.8615 35.1678 96.3786 35.3895 96.8152 35.8193L96.1839 36.4507C95.9219 36.1887 95.6063 36.0544 95.2369 36.0544C94.8675 36.0544 94.5518 36.182 94.2899 36.4507C94.0279 36.7126 93.8936 37.0283 93.8936 37.3976C93.8936 37.767 94.0212 38.0827 94.2899 38.3446C94.5518 38.6066 94.8675 38.7409 95.2369 38.7409C95.6063 38.7409 95.9219 38.6133 96.1839 38.3446L96.8152 38.976V38.9827Z" fill="#102241"/>
<path d="M98.2323 35.2954H99.1256V38.6133H100.912V39.5066H98.2323V35.2954Z" fill="#102241"/>
<path d="M103.209 35.2954V39.5066H102.316V35.2954H103.209Z" fill="#102241"/>
<path d="M107.803 35.2954V36.1887H105.889V36.9544H107.42V37.8476H105.889V38.6133H107.803V39.5066H104.996V35.2954H107.803Z" fill="#102241"/>
<path d="M110.234 37.0282V39.5066H109.341V35.2954H110.073L111.887 37.7738V35.2954H112.78V39.5066H112.048L110.228 37.0282H110.234Z" fill="#102241"/>
<path d="M116.998 35.2954V36.1887H115.977V39.5066H115.083V36.1887H114.063V35.2954H116.998Z" fill="#102241"/>
<path d="M124.641 35.8193C125.077 36.2559 125.292 36.7797 125.292 37.3976C125.292 38.0155 125.077 38.5461 124.641 38.9827C124.204 39.4192 123.68 39.6342 123.062 39.6342C122.445 39.6342 121.914 39.4125 121.477 38.9827C121.041 38.5461 120.826 38.0223 120.826 37.3976C120.826 36.773 121.041 36.2559 121.477 35.8193C121.914 35.3828 122.438 35.1678 123.062 35.1678C123.687 35.1678 124.204 35.3895 124.641 35.8193ZM123.062 36.0611C122.693 36.0611 122.377 36.1887 122.115 36.4574C121.853 36.7193 121.719 37.035 121.719 37.4044C121.719 37.7738 121.847 38.0894 122.115 38.3514C122.377 38.6133 122.693 38.7476 123.062 38.7476C123.432 38.7476 123.747 38.62 124.009 38.3514C124.271 38.0894 124.406 37.7738 124.406 37.4044C124.406 37.035 124.278 36.7193 124.009 36.4574C123.747 36.1954 123.432 36.0611 123.062 36.0611Z" fill="#102241"/>
<path d="M129.879 35.2954L128.341 39.5066H127.643L126.105 35.2954H127.059L127.992 37.8611L128.932 35.2954H129.879Z" fill="#102241"/>
<path d="M133.99 35.2954V36.1887H132.076V36.9544H133.607V37.8476H132.076V38.6133H133.99V39.5066H131.182V35.2954H133.99Z" fill="#102241"/>
<path d="M136.414 38.6133V39.5066H135.521V35.2954H137.052C137.516 35.2954 137.905 35.4566 138.228 35.779C138.55 36.1014 138.711 36.4909 138.711 36.9544C138.711 37.4178 138.55 37.8073 138.228 38.1297C138.161 38.1969 138.093 38.2573 138.02 38.3111L138.711 39.5133H137.684L137.167 38.6133C137.126 38.6133 137.093 38.6133 137.052 38.6133H136.414ZM136.414 36.1887V37.72H137.052C137.267 37.72 137.442 37.6461 137.596 37.4984C137.751 37.3506 137.818 37.1693 137.818 36.9544C137.818 36.7394 137.744 36.5648 137.596 36.4104C137.449 36.2626 137.267 36.1887 137.052 36.1887H136.414Z" fill="#102241"/>
<path d="M140.122 39.5066H139.739V38.6133H140.122C140.364 38.6133 140.578 38.526 140.753 38.3514C140.928 38.1767 141.015 37.9685 141.015 37.72V35.2954H141.908V37.72C141.908 38.2103 141.734 38.6334 141.384 38.9827C141.035 39.3319 140.612 39.5066 140.122 39.5066Z" fill="#102241"/>
<path d="M147.127 35.8193C147.563 36.2559 147.778 36.7797 147.778 37.3976C147.778 38.0155 147.563 38.5461 147.127 38.9827C146.69 39.4192 146.166 39.6342 145.549 39.6342C144.931 39.6342 144.4 39.4125 143.963 38.9827C143.527 38.5461 143.312 38.0223 143.312 37.3976C143.312 36.773 143.527 36.2559 143.963 35.8193C144.4 35.3828 144.924 35.1678 145.549 35.1678C146.173 35.1678 146.69 35.3895 147.127 35.8193ZM145.542 36.0611C145.172 36.0611 144.857 36.1887 144.595 36.4574C144.333 36.7193 144.199 37.035 144.199 37.4044C144.199 37.7738 144.326 38.0894 144.595 38.3514C144.857 38.6133 145.172 38.7476 145.542 38.7476C145.911 38.7476 146.227 38.62 146.489 38.3514C146.751 38.0894 146.885 37.7738 146.885 37.4044C146.885 37.035 146.757 36.7193 146.489 36.4574C146.227 36.1954 145.911 36.0611 145.542 36.0611Z" fill="#102241"/>
<path d="M150.975 37.9215V39.5066H150.082V37.9215L148.551 35.2954H149.585L150.532 36.9208L151.479 35.2954H152.507L150.975 37.9215Z" fill="#102241"/>
<path d="M153.897 38.8685V39.5066H153.004V38.8685H153.897Z" fill="#102241"/>
<path d="M158.363 35.2954H159.256V36.9544H161.043V35.2954H161.936V39.5066H161.043V37.8476H159.256V39.5066H158.363V35.2954Z" fill="#102241"/>
<path d="M166.537 35.2954V36.1887H164.623V36.9544H166.154V37.8476H164.623V38.6133H166.537V39.5066H163.729V35.2954H166.537Z" fill="#102241"/>
<path d="M168.961 38.6133V39.5066H168.068V35.2954H169.6C170.063 35.2954 170.452 35.4566 170.775 35.779C171.097 36.1014 171.258 36.4909 171.258 36.9544C171.258 37.4178 171.097 37.8073 170.775 38.1297C170.708 38.1969 170.641 38.2573 170.567 38.3111L171.258 39.5133H170.231L169.714 38.6133C169.673 38.6133 169.64 38.6133 169.6 38.6133H168.961ZM168.961 36.1887V37.72H169.6C169.814 37.72 169.989 37.6461 170.144 37.4984C170.291 37.3506 170.365 37.1693 170.365 36.9544C170.365 36.7394 170.291 36.5648 170.144 36.4104C169.996 36.2626 169.814 36.1887 169.6 36.1887H168.961Z" fill="#102241"/>
<path d="M175.725 35.2954V36.1887H173.811V36.9544H175.342V37.8476H173.811V38.6133H175.725V39.5066H172.917V35.2954H175.725Z" fill="#102241"/>
<path d="M64.4897 24.4554C62.2532 26.6919 59.5465 27.8135 56.3765 27.8135C53.2064 27.8135 50.4796 26.6919 48.2431 24.4554C46.0065 22.2188 44.8849 19.5055 44.8849 16.322C44.8849 13.1384 46.0065 10.4519 48.2431 8.20869C50.4796 5.97217 53.1929 4.85055 56.3765 4.85055C59.56 4.85055 62.2465 5.97217 64.4897 8.20869L61.2323 11.4661C59.8824 10.1161 58.2637 9.44448 56.3765 9.44448C54.4892 9.44448 52.8437 10.1161 51.4937 11.4661C50.1438 12.8161 49.4721 14.4347 49.4721 16.322C49.4721 18.2092 50.1438 19.8547 51.4937 21.2047C52.8437 22.5547 54.469 23.2263 56.3765 23.2263C58.2839 23.2263 59.8824 22.5547 61.2323 21.2047L64.4897 24.4621V24.4554Z" fill="#102241"/>
<path d="M88.1109 8.20869C90.3474 10.4452 91.469 13.1519 91.469 16.322C91.469 19.492 90.3474 22.2188 88.1109 24.4554C85.8744 26.6919 83.1677 27.8135 79.9976 27.8135C76.8275 27.8135 74.1007 26.6919 71.8642 24.4554C69.6277 22.2188 68.5061 19.5055 68.5061 16.322C68.5061 13.1384 69.6277 10.4519 71.8642 8.20869C74.1007 5.97217 76.8141 4.85055 79.9976 4.85055C83.1811 4.85055 85.8676 5.97217 88.1109 8.20869ZM79.9976 9.44448C78.0902 9.44448 76.4648 10.1161 75.1149 11.4661C73.7649 12.8161 73.0933 14.4347 73.0933 16.322C73.0933 18.2092 73.7649 19.8547 75.1149 21.2047C76.4648 22.5547 78.0902 23.2263 79.9976 23.2263C81.905 23.2263 83.5035 22.5547 84.8535 21.2047C86.2035 19.8547 86.8751 18.2294 86.8751 16.322C86.8751 14.4145 86.2035 12.8161 84.8535 11.4661C83.5035 10.1161 81.8849 9.44448 79.9976 9.44448Z" fill="#102241"/>
<path d="M117.501 24.4554C115.265 26.6919 112.558 27.8135 109.388 27.8135C106.218 27.8135 103.491 26.6919 101.255 24.4554C99.0181 22.2188 97.8965 19.5055 97.8965 16.322C97.8965 13.1384 99.0181 10.4519 101.255 8.20869C103.491 5.97217 106.205 4.85055 109.388 4.85055C112.572 4.85055 115.258 5.97217 117.501 8.20869L114.244 11.4661C112.894 10.1161 111.275 9.44448 109.388 9.44448C107.501 9.44448 105.855 10.1161 104.505 11.4661C103.155 12.8161 102.484 14.4347 102.484 16.322C102.484 18.2092 103.155 19.8547 104.505 21.2047C105.855 22.5547 107.481 23.2263 109.388 23.2263C111.295 23.2263 112.894 22.5547 114.244 21.2047L117.501 24.4621V24.4554Z" fill="#102241"/>
<path d="M141.122 8.20869C143.359 10.4452 144.481 13.1519 144.481 16.322C144.481 19.492 143.359 22.2188 141.122 24.4554C138.886 26.6919 136.179 27.8135 133.009 27.8135C129.839 27.8135 127.112 26.6919 124.876 24.4554C122.639 22.2188 121.518 19.5055 121.518 16.322C121.518 13.1384 122.639 10.4519 124.876 8.20869C127.112 5.97217 129.826 4.85055 133.009 4.85055C136.193 4.85055 138.879 5.97217 141.122 8.20869ZM133.016 9.44448C131.109 9.44448 129.483 10.1161 128.133 11.4661C126.783 12.8161 126.112 14.4347 126.112 16.322C126.112 18.2092 126.783 19.8547 128.133 21.2047C129.483 22.5547 131.109 23.2263 133.016 23.2263C134.923 23.2263 136.522 22.5547 137.872 21.2047C139.222 19.8547 139.893 18.2294 139.893 16.322C139.893 14.4145 139.222 12.8161 137.872 11.4661C136.522 10.1161 134.903 9.44448 133.016 9.44448Z" fill="#102241"/>
<path d="M157.604 5.50874H162.198V14.0384H171.386V5.50874H175.98V27.162H171.386V18.6324H162.198V27.162H157.604V5.50874Z" fill="#E06D22"/>
<path d="M33.615 16.4966H28.9808V39.6342H33.615V16.4966Z" fill="#102241"/>
<path d="M15.2795 33.5559H10.6453V39.6342H15.2795V33.5559Z" fill="#E06D22"/>
<path d="M21.116 27.068C19.175 27.6255 17.281 27.7732 15.2728 27.7128V16.5033H10.6386V27.2158C7.46179 26.4434 4.62752 24.1464 4.62752 16.4563C4.62752 7.5102 8.46251 5.85799 12.1833 5.42143C15.4474 5.0789 18.2146 5.01846 21.0623 5.83113C22.6473 6.32142 24.595 7.40274 26.0256 8.57809L28.9673 4.99831C27.08 3.44685 24.5749 2.07001 22.3854 1.38495C18.5638 0.296913 14.9975 0.471536 11.6796 0.820783C3.92902 1.72076 0 6.98633 0 16.4563C0 25.9262 3.92902 31.1851 11.7065 32.0985C13.0967 32.2463 14.5407 32.3604 16.0385 32.3604C18.0735 32.3604 20.2093 32.1455 22.4391 31.5075C24.5816 30.8426 27.0868 29.4657 28.974 27.9143L26.0323 24.3345C24.6017 25.5165 22.654 26.5911 21.1227 27.068H21.116Z" fill="#102241"/>
</svg>
